ISO-10303-21;
HEADER;
/* Generated by software containing ST-Developer
 * from STEP Tools, Inc. (www.steptools.com) 
 */

FILE_DESCRIPTION(
/* description */ (''),
/* implementation_level */ '2;1');

FILE_NAME(
/* name */ 'Back-display-o.step',
/* time_stamp */ '2026-02-18T15:49:22+01:00',
/* author */ (''),
/* organization */ (''),
/* preprocessor_version */ 'ST-DEVELOPER v20.1',
/* originating_system */ 'Autodesk Translation Framework v14.24.0.0',
/* authorisation */ '');

FILE_SCHEMA (('AUTOMOTIVE_DESIGN { 1 0 10303 214 3 1 1 }'));
ENDSEC;

DATA;
#10=MECHANICAL_DESIGN_GEOMETRIC_PRESENTATION_REPRESENTATION('',(#13,#14),
#865);
#11=SHAPE_REPRESENTATION_RELATIONSHIP('SRR','None',#872,#12);
#12=ADVANCED_BREP_SHAPE_REPRESENTATION('',(#15,#16),#864);
#13=STYLED_ITEM('',(#881),#15);
#14=STYLED_ITEM('',(#881),#16);
#15=MANIFOLD_SOLID_BREP('Body1',#520);
#16=MANIFOLD_SOLID_BREP('Body2',#521);
#17=FACE_BOUND('',#76,.T.);
#18=FACE_BOUND('',#77,.T.);
#19=FACE_BOUND('',#78,.T.);
#20=FACE_BOUND('',#79,.T.);
#21=FACE_BOUND('',#80,.T.);
#22=FACE_BOUND('',#99,.T.);
#23=FACE_BOUND('',#100,.T.);
#24=FACE_BOUND('',#101,.T.);
#25=FACE_BOUND('',#102,.T.);
#26=FACE_BOUND('',#103,.T.);
#27=PLANE('',#538);
#28=PLANE('',#539);
#29=PLANE('',#549);
#30=PLANE('',#552);
#31=PLANE('',#555);
#32=PLANE('',#556);
#33=PLANE('',#557);
#34=PLANE('',#558);
#35=PLANE('',#559);
#36=PLANE('',#560);
#37=PLANE('',#561);
#38=PLANE('',#562);
#39=PLANE('',#571);
#40=PLANE('',#572);
#41=PLANE('',#573);
#42=PLANE('',#574);
#43=PLANE('',#575);
#44=PLANE('',#576);
#45=PLANE('',#577);
#46=FACE_OUTER_BOUND('',#73,.T.);
#47=FACE_OUTER_BOUND('',#74,.T.);
#48=FACE_OUTER_BOUND('',#75,.T.);
#49=FACE_OUTER_BOUND('',#81,.T.);
#50=FACE_OUTER_BOUND('',#82,.T.);
#51=FACE_OUTER_BOUND('',#83,.T.);
#52=FACE_OUTER_BOUND('',#84,.T.);
#53=FACE_OUTER_BOUND('',#85,.T.);
#54=FACE_OUTER_BOUND('',#86,.T.);
#55=FACE_OUTER_BOUND('',#87,.T.);
#56=FACE_OUTER_BOUND('',#88,.T.);
#57=FACE_OUTER_BOUND('',#89,.T.);
#58=FACE_OUTER_BOUND('',#90,.T.);
#59=FACE_OUTER_BOUND('',#91,.T.);
#60=FACE_OUTER_BOUND('',#92,.T.);
#61=FACE_OUTER_BOUND('',#93,.T.);
#62=FACE_OUTER_BOUND('',#94,.T.);
#63=FACE_OUTER_BOUND('',#95,.T.);
#64=FACE_OUTER_BOUND('',#96,.T.);
#65=FACE_OUTER_BOUND('',#97,.T.);
#66=FACE_OUTER_BOUND('',#98,.T.);
#67=FACE_OUTER_BOUND('',#104,.T.);
#68=FACE_OUTER_BOUND('',#105,.T.);
#69=FACE_OUTER_BOUND('',#106,.T.);
#70=FACE_OUTER_BOUND('',#107,.T.);
#71=FACE_OUTER_BOUND('',#108,.T.);
#72=FACE_OUTER_BOUND('',#109,.T.);
#73=EDGE_LOOP('',(#347,#348,#349,#350));
#74=EDGE_LOOP('',(#351,#352,#353,#354));
#75=EDGE_LOOP('',(#355,#356,#357,#358,#359,#360,#361,#362));
#76=EDGE_LOOP('',(#363,#364,#365,#366,#367,#368));
#77=EDGE_LOOP('',(#369));
#78=EDGE_LOOP('',(#370));
#79=EDGE_LOOP('',(#371));
#80=EDGE_LOOP('',(#372));
#81=EDGE_LOOP('',(#373,#374,#375,#376));
#82=EDGE_LOOP('',(#377,#378,#379,#380));
#83=EDGE_LOOP('',(#381,#382,#383,#384));
#84=EDGE_LOOP('',(#385,#386,#387,#388));
#85=EDGE_LOOP('',(#389,#390,#391,#392));
#86=EDGE_LOOP('',(#393,#394,#395,#396));
#87=EDGE_LOOP('',(#397,#398,#399,#400));
#88=EDGE_LOOP('',(#401,#402,#403,#404));
#89=EDGE_LOOP('',(#405,#406,#407,#408));
#90=EDGE_LOOP('',(#409,#410,#411,#412,#413,#414));
#91=EDGE_LOOP('',(#415,#416,#417,#418,#419,#420));
#92=EDGE_LOOP('',(#421,#422,#423,#424));
#93=EDGE_LOOP('',(#425,#426,#427,#428));
#94=EDGE_LOOP('',(#429,#430,#431,#432));
#95=EDGE_LOOP('',(#433,#434,#435,#436));
#96=EDGE_LOOP('',(#437,#438,#439,#440));
#97=EDGE_LOOP('',(#441,#442,#443,#444));
#98=EDGE_LOOP('',(#445,#446,#447,#448,#449,#450,#451,#452));
#99=EDGE_LOOP('',(#453));
#100=EDGE_LOOP('',(#454));
#101=EDGE_LOOP('',(#455));
#102=EDGE_LOOP('',(#456));
#103=EDGE_LOOP('',(#457,#458,#459,#460));
#104=EDGE_LOOP('',(#461,#462,#463,#464));
#105=EDGE_LOOP('',(#465,#466,#467,#468));
#106=EDGE_LOOP('',(#469,#470,#471,#472));
#107=EDGE_LOOP('',(#473,#474,#475,#476));
#108=EDGE_LOOP('',(#477,#478,#479,#480));
#109=EDGE_LOOP('',(#481,#482,#483,#484));
#110=LINE('',#725,#163);
#111=LINE('',#728,#164);
#112=LINE('',#731,#165);
#113=LINE('',#733,#166);
#114=LINE('',#734,#167);
#115=LINE('',#737,#168);
#116=LINE('',#741,#169);
#117=LINE('',#745,#170);
#118=LINE('',#749,#171);
#119=LINE('',#751,#172);
#120=LINE('',#753,#173);
#121=LINE('',#755,#174);
#122=LINE('',#757,#175);
#123=LINE('',#758,#176);
#124=LINE('',#769,#177);
#125=LINE('',#773,#178);
#126=LINE('',#774,#179);
#127=LINE('',#777,#180);
#128=LINE('',#781,#181);
#129=LINE('',#782,#182);
#130=LINE('',#785,#183);
#131=LINE('',#788,#184);
#132=LINE('',#791,#185);
#133=LINE('',#793,#186);
#134=LINE('',#794,#187);
#135=LINE('',#797,#188);
#136=LINE('',#798,#189);
#137=LINE('',#801,#190);
#138=LINE('',#802,#191);
#139=LINE('',#806,#192);
#140=LINE('',#807,#193);
#141=LINE('',#808,#194);
#142=LINE('',#811,#195);
#143=LINE('',#812,#196);
#144=LINE('',#815,#197);
#145=LINE('',#816,#198);
#146=LINE('',#818,#199);
#147=LINE('',#821,#200);
#148=LINE('',#825,#201);
#149=LINE('',#829,#202);
#150=LINE('',#833,#203);
#151=LINE('',#839,#204);
#152=LINE('',#841,#205);
#153=LINE('',#843,#206);
#154=LINE('',#844,#207);
#155=LINE('',#847,#208);
#156=LINE('',#849,#209);
#157=LINE('',#850,#210);
#158=LINE('',#853,#211);
#159=LINE('',#855,#212);
#160=LINE('',#856,#213);
#161=LINE('',#858,#214);
#162=LINE('',#859,#215);
#163=VECTOR('',#584,10.);
#164=VECTOR('',#587,10.);
#165=VECTOR('',#590,10.);
#166=VECTOR('',#591,10.);
#167=VECTOR('',#592,10.);
#168=VECTOR('',#595,10.);
#169=VECTOR('',#598,10.);
#170=VECTOR('',#601,10.);
#171=VECTOR('',#604,10.);
#172=VECTOR('',#605,10.);
#173=VECTOR('',#606,10.);
#174=VECTOR('',#607,10.);
#175=VECTOR('',#608,10.);
#176=VECTOR('',#609,10.);
#177=VECTOR('',#620,10.);
#178=VECTOR('',#625,10.);
#179=VECTOR('',#626,10.);
#180=VECTOR('',#629,10.);
#181=VECTOR('',#634,10.);
#182=VECTOR('',#635,10.);
#183=VECTOR('',#638,10.);
#184=VECTOR('',#643,10.);
#185=VECTOR('',#646,10.);
#186=VECTOR('',#647,10.);
#187=VECTOR('',#648,10.);
#188=VECTOR('',#651,10.);
#189=VECTOR('',#652,10.);
#190=VECTOR('',#655,10.);
#191=VECTOR('',#656,10.);
#192=VECTOR('',#659,10.);
#193=VECTOR('',#660,10.);
#194=VECTOR('',#661,10.);
#195=VECTOR('',#664,10.);
#196=VECTOR('',#665,10.);
#197=VECTOR('',#668,10.);
#198=VECTOR('',#669,10.);
#199=VECTOR('',#672,10.);
#200=VECTOR('',#675,1.5);
#201=VECTOR('',#680,1.5);
#202=VECTOR('',#685,1.5);
#203=VECTOR('',#690,1.5);
#204=VECTOR('',#697,10.);
#205=VECTOR('',#698,10.);
#206=VECTOR('',#699,10.);
#207=VECTOR('',#700,10.);
#208=VECTOR('',#703,10.);
#209=VECTOR('',#704,10.);
#210=VECTOR('',#705,10.);
#211=VECTOR('',#708,10.);
#212=VECTOR('',#709,10.);
#213=VECTOR('',#710,10.);
#214=VECTOR('',#713,10.);
#215=VECTOR('',#714,10.);
#216=CIRCLE('',#536,5.);
#217=CIRCLE('',#537,5.);
#218=CIRCLE('',#540,5.);
#219=CIRCLE('',#541,5.);
#220=CIRCLE('',#542,5.);
#221=CIRCLE('',#543,1.5);
#222=CIRCLE('',#544,1.5);
#223=CIRCLE('',#545,1.5);
#224=CIRCLE('',#546,1.5);
#225=CIRCLE('',#548,5.);
#226=CIRCLE('',#551,5.);
#227=CIRCLE('',#554,5.);
#228=CIRCLE('',#564,1.5);
#229=CIRCLE('',#566,1.5);
#230=CIRCLE('',#568,1.5);
#231=CIRCLE('',#570,1.5);
#232=VERTEX_POINT('',#721);
#233=VERTEX_POINT('',#722);
#234=VERTEX_POINT('',#724);
#235=VERTEX_POINT('',#726);
#236=VERTEX_POINT('',#730);
#237=VERTEX_POINT('',#732);
#238=VERTEX_POINT('',#736);
#239=VERTEX_POINT('',#738);
#240=VERTEX_POINT('',#740);
#241=VERTEX_POINT('',#742);
#242=VERTEX_POINT('',#744);
#243=VERTEX_POINT('',#747);
#244=VERTEX_POINT('',#748);
#245=VERTEX_POINT('',#750);
#246=VERTEX_POINT('',#752);
#247=VERTEX_POINT('',#754);
#248=VERTEX_POINT('',#756);
#249=VERTEX_POINT('',#759);
#250=VERTEX_POINT('',#761);
#251=VERTEX_POINT('',#763);
#252=VERTEX_POINT('',#765);
#253=VERTEX_POINT('',#768);
#254=VERTEX_POINT('',#772);
#255=VERTEX_POINT('',#776);
#256=VERTEX_POINT('',#780);
#257=VERTEX_POINT('',#784);
#258=VERTEX_POINT('',#790);
#259=VERTEX_POINT('',#792);
#260=VERTEX_POINT('',#796);
#261=VERTEX_POINT('',#800);
#262=VERTEX_POINT('',#804);
#263=VERTEX_POINT('',#805);
#264=VERTEX_POINT('',#810);
#265=VERTEX_POINT('',#814);
#266=VERTEX_POINT('',#820);
#267=VERTEX_POINT('',#824);
#268=VERTEX_POINT('',#828);
#269=VERTEX_POINT('',#832);
#270=VERTEX_POINT('',#837);
#271=VERTEX_POINT('',#838);
#272=VERTEX_POINT('',#840);
#273=VERTEX_POINT('',#842);
#274=VERTEX_POINT('',#846);
#275=VERTEX_POINT('',#848);
#276=VERTEX_POINT('',#852);
#277=VERTEX_POINT('',#854);
#278=EDGE_CURVE('',#232,#233,#216,.T.);
#279=EDGE_CURVE('',#233,#234,#110,.T.);
#280=EDGE_CURVE('',#234,#235,#217,.T.);
#281=EDGE_CURVE('',#235,#232,#111,.T.);
#282=EDGE_CURVE('',#236,#233,#112,.T.);
#283=EDGE_CURVE('',#237,#236,#113,.T.);
#284=EDGE_CURVE('',#234,#237,#114,.T.);
#285=EDGE_CURVE('',#232,#238,#115,.T.);
#286=EDGE_CURVE('',#239,#238,#218,.T.);
#287=EDGE_CURVE('',#239,#240,#116,.T.);
#288=EDGE_CURVE('',#241,#240,#219,.T.);
#289=EDGE_CURVE('',#241,#242,#117,.T.);
#290=EDGE_CURVE('',#236,#242,#220,.T.);
#291=EDGE_CURVE('',#243,#244,#118,.T.);
#292=EDGE_CURVE('',#244,#245,#119,.T.);
#293=EDGE_CURVE('',#245,#246,#120,.T.);
#294=EDGE_CURVE('',#246,#247,#121,.T.);
#295=EDGE_CURVE('',#247,#248,#122,.T.);
#296=EDGE_CURVE('',#248,#243,#123,.T.);
#297=EDGE_CURVE('',#249,#249,#221,.T.);
#298=EDGE_CURVE('',#250,#250,#222,.T.);
#299=EDGE_CURVE('',#251,#251,#223,.T.);
#300=EDGE_CURVE('',#252,#252,#224,.T.);
#301=EDGE_CURVE('',#242,#253,#124,.T.);
#302=EDGE_CURVE('',#253,#237,#225,.T.);
#303=EDGE_CURVE('',#254,#241,#125,.T.);
#304=EDGE_CURVE('',#253,#254,#126,.T.);
#305=EDGE_CURVE('',#240,#255,#127,.T.);
#306=EDGE_CURVE('',#255,#254,#226,.T.);
#307=EDGE_CURVE('',#256,#239,#128,.T.);
#308=EDGE_CURVE('',#255,#256,#129,.T.);
#309=EDGE_CURVE('',#238,#257,#130,.T.);
#310=EDGE_CURVE('',#257,#256,#227,.T.);
#311=EDGE_CURVE('',#257,#235,#131,.T.);
#312=EDGE_CURVE('',#258,#243,#132,.T.);
#313=EDGE_CURVE('',#258,#259,#133,.T.);
#314=EDGE_CURVE('',#244,#259,#134,.T.);
#315=EDGE_CURVE('',#259,#260,#135,.T.);
#316=EDGE_CURVE('',#245,#260,#136,.T.);
#317=EDGE_CURVE('',#261,#258,#137,.T.);
#318=EDGE_CURVE('',#260,#261,#138,.T.);
#319=EDGE_CURVE('',#262,#263,#139,.T.);
#320=EDGE_CURVE('',#263,#246,#140,.T.);
#321=EDGE_CURVE('',#262,#261,#141,.T.);
#322=EDGE_CURVE('',#264,#248,#142,.T.);
#323=EDGE_CURVE('',#264,#262,#143,.T.);
#324=EDGE_CURVE('',#265,#264,#144,.T.);
#325=EDGE_CURVE('',#265,#247,#145,.T.);
#326=EDGE_CURVE('',#263,#265,#146,.T.);
#327=EDGE_CURVE('',#249,#266,#147,.T.);
#328=EDGE_CURVE('',#266,#266,#228,.T.);
#329=EDGE_CURVE('',#250,#267,#148,.T.);
#330=EDGE_CURVE('',#267,#267,#229,.T.);
#331=EDGE_CURVE('',#251,#268,#149,.T.);
#332=EDGE_CURVE('',#268,#268,#230,.T.);
#333=EDGE_CURVE('',#252,#269,#150,.T.);
#334=EDGE_CURVE('',#269,#269,#231,.T.);
#335=EDGE_CURVE('',#270,#271,#151,.T.);
#336=EDGE_CURVE('',#270,#272,#152,.T.);
#337=EDGE_CURVE('',#273,#272,#153,.T.);
#338=EDGE_CURVE('',#271,#273,#154,.T.);
#339=EDGE_CURVE('',#271,#274,#155,.T.);
#340=EDGE_CURVE('',#275,#273,#156,.T.);
#341=EDGE_CURVE('',#274,#275,#157,.T.);
#342=EDGE_CURVE('',#274,#276,#158,.T.);
#343=EDGE_CURVE('',#277,#275,#159,.T.);
#344=EDGE_CURVE('',#276,#277,#160,.T.);
#345=EDGE_CURVE('',#276,#270,#161,.T.);
#346=EDGE_CURVE('',#272,#277,#162,.T.);
#347=ORIENTED_EDGE('',*,*,#278,.T.);
#348=ORIENTED_EDGE('',*,*,#279,.T.);
#349=ORIENTED_EDGE('',*,*,#280,.T.);
#350=ORIENTED_EDGE('',*,*,#281,.T.);
#351=ORIENTED_EDGE('',*,*,#279,.F.);
#352=ORIENTED_EDGE('',*,*,#282,.F.);
#353=ORIENTED_EDGE('',*,*,#283,.F.);
#354=ORIENTED_EDGE('',*,*,#284,.F.);
#355=ORIENTED_EDGE('',*,*,#278,.F.);
#356=ORIENTED_EDGE('',*,*,#285,.T.);
#357=ORIENTED_EDGE('',*,*,#286,.F.);
#358=ORIENTED_EDGE('',*,*,#287,.T.);
#359=ORIENTED_EDGE('',*,*,#288,.F.);
#360=ORIENTED_EDGE('',*,*,#289,.T.);
#361=ORIENTED_EDGE('',*,*,#290,.F.);
#362=ORIENTED_EDGE('',*,*,#282,.T.);
#363=ORIENTED_EDGE('',*,*,#291,.T.);
#364=ORIENTED_EDGE('',*,*,#292,.T.);
#365=ORIENTED_EDGE('',*,*,#293,.T.);
#366=ORIENTED_EDGE('',*,*,#294,.T.);
#367=ORIENTED_EDGE('',*,*,#295,.T.);
#368=ORIENTED_EDGE('',*,*,#296,.T.);
#369=ORIENTED_EDGE('',*,*,#297,.T.);
#370=ORIENTED_EDGE('',*,*,#298,.T.);
#371=ORIENTED_EDGE('',*,*,#299,.T.);
#372=ORIENTED_EDGE('',*,*,#300,.T.);
#373=ORIENTED_EDGE('',*,*,#290,.T.);
#374=ORIENTED_EDGE('',*,*,#301,.T.);
#375=ORIENTED_EDGE('',*,*,#302,.T.);
#376=ORIENTED_EDGE('',*,*,#283,.T.);
#377=ORIENTED_EDGE('',*,*,#301,.F.);
#378=ORIENTED_EDGE('',*,*,#289,.F.);
#379=ORIENTED_EDGE('',*,*,#303,.F.);
#380=ORIENTED_EDGE('',*,*,#304,.F.);
#381=ORIENTED_EDGE('',*,*,#288,.T.);
#382=ORIENTED_EDGE('',*,*,#305,.T.);
#383=ORIENTED_EDGE('',*,*,#306,.T.);
#384=ORIENTED_EDGE('',*,*,#303,.T.);
#385=ORIENTED_EDGE('',*,*,#305,.F.);
#386=ORIENTED_EDGE('',*,*,#287,.F.);
#387=ORIENTED_EDGE('',*,*,#307,.F.);
#388=ORIENTED_EDGE('',*,*,#308,.F.);
#389=ORIENTED_EDGE('',*,*,#286,.T.);
#390=ORIENTED_EDGE('',*,*,#309,.T.);
#391=ORIENTED_EDGE('',*,*,#310,.T.);
#392=ORIENTED_EDGE('',*,*,#307,.T.);
#393=ORIENTED_EDGE('',*,*,#281,.F.);
#394=ORIENTED_EDGE('',*,*,#311,.F.);
#395=ORIENTED_EDGE('',*,*,#309,.F.);
#396=ORIENTED_EDGE('',*,*,#285,.F.);
#397=ORIENTED_EDGE('',*,*,#291,.F.);
#398=ORIENTED_EDGE('',*,*,#312,.F.);
#399=ORIENTED_EDGE('',*,*,#313,.T.);
#400=ORIENTED_EDGE('',*,*,#314,.F.);
#401=ORIENTED_EDGE('',*,*,#292,.F.);
#402=ORIENTED_EDGE('',*,*,#314,.T.);
#403=ORIENTED_EDGE('',*,*,#315,.T.);
#404=ORIENTED_EDGE('',*,*,#316,.F.);
#405=ORIENTED_EDGE('',*,*,#315,.F.);
#406=ORIENTED_EDGE('',*,*,#313,.F.);
#407=ORIENTED_EDGE('',*,*,#317,.F.);
#408=ORIENTED_EDGE('',*,*,#318,.F.);
#409=ORIENTED_EDGE('',*,*,#319,.T.);
#410=ORIENTED_EDGE('',*,*,#320,.T.);
#411=ORIENTED_EDGE('',*,*,#293,.F.);
#412=ORIENTED_EDGE('',*,*,#316,.T.);
#413=ORIENTED_EDGE('',*,*,#318,.T.);
#414=ORIENTED_EDGE('',*,*,#321,.F.);
#415=ORIENTED_EDGE('',*,*,#312,.T.);
#416=ORIENTED_EDGE('',*,*,#296,.F.);
#417=ORIENTED_EDGE('',*,*,#322,.F.);
#418=ORIENTED_EDGE('',*,*,#323,.T.);
#419=ORIENTED_EDGE('',*,*,#321,.T.);
#420=ORIENTED_EDGE('',*,*,#317,.T.);
#421=ORIENTED_EDGE('',*,*,#324,.T.);
#422=ORIENTED_EDGE('',*,*,#322,.T.);
#423=ORIENTED_EDGE('',*,*,#295,.F.);
#424=ORIENTED_EDGE('',*,*,#325,.F.);
#425=ORIENTED_EDGE('',*,*,#326,.T.);
#426=ORIENTED_EDGE('',*,*,#325,.T.);
#427=ORIENTED_EDGE('',*,*,#294,.F.);
#428=ORIENTED_EDGE('',*,*,#320,.F.);
#429=ORIENTED_EDGE('',*,*,#297,.F.);
#430=ORIENTED_EDGE('',*,*,#327,.T.);
#431=ORIENTED_EDGE('',*,*,#328,.T.);
#432=ORIENTED_EDGE('',*,*,#327,.F.);
#433=ORIENTED_EDGE('',*,*,#298,.F.);
#434=ORIENTED_EDGE('',*,*,#329,.T.);
#435=ORIENTED_EDGE('',*,*,#330,.T.);
#436=ORIENTED_EDGE('',*,*,#329,.F.);
#437=ORIENTED_EDGE('',*,*,#299,.F.);
#438=ORIENTED_EDGE('',*,*,#331,.T.);
#439=ORIENTED_EDGE('',*,*,#332,.T.);
#440=ORIENTED_EDGE('',*,*,#331,.F.);
#441=ORIENTED_EDGE('',*,*,#300,.F.);
#442=ORIENTED_EDGE('',*,*,#333,.T.);
#443=ORIENTED_EDGE('',*,*,#334,.T.);
#444=ORIENTED_EDGE('',*,*,#333,.F.);
#445=ORIENTED_EDGE('',*,*,#280,.F.);
#446=ORIENTED_EDGE('',*,*,#284,.T.);
#447=ORIENTED_EDGE('',*,*,#302,.F.);
#448=ORIENTED_EDGE('',*,*,#304,.T.);
#449=ORIENTED_EDGE('',*,*,#306,.F.);
#450=ORIENTED_EDGE('',*,*,#308,.T.);
#451=ORIENTED_EDGE('',*,*,#310,.F.);
#452=ORIENTED_EDGE('',*,*,#311,.T.);
#453=ORIENTED_EDGE('',*,*,#334,.F.);
#454=ORIENTED_EDGE('',*,*,#332,.F.);
#455=ORIENTED_EDGE('',*,*,#330,.F.);
#456=ORIENTED_EDGE('',*,*,#328,.F.);
#457=ORIENTED_EDGE('',*,*,#326,.F.);
#458=ORIENTED_EDGE('',*,*,#319,.F.);
#459=ORIENTED_EDGE('',*,*,#323,.F.);
#460=ORIENTED_EDGE('',*,*,#324,.F.);
#461=ORIENTED_EDGE('',*,*,#335,.F.);
#462=ORIENTED_EDGE('',*,*,#336,.T.);
#463=ORIENTED_EDGE('',*,*,#337,.F.);
#464=ORIENTED_EDGE('',*,*,#338,.F.);
#465=ORIENTED_EDGE('',*,*,#339,.F.);
#466=ORIENTED_EDGE('',*,*,#338,.T.);
#467=ORIENTED_EDGE('',*,*,#340,.F.);
#468=ORIENTED_EDGE('',*,*,#341,.F.);
#469=ORIENTED_EDGE('',*,*,#342,.F.);
#470=ORIENTED_EDGE('',*,*,#341,.T.);
#471=ORIENTED_EDGE('',*,*,#343,.F.);
#472=ORIENTED_EDGE('',*,*,#344,.F.);
#473=ORIENTED_EDGE('',*,*,#345,.F.);
#474=ORIENTED_EDGE('',*,*,#344,.T.);
#475=ORIENTED_EDGE('',*,*,#346,.F.);
#476=ORIENTED_EDGE('',*,*,#336,.F.);
#477=ORIENTED_EDGE('',*,*,#346,.T.);
#478=ORIENTED_EDGE('',*,*,#343,.T.);
#479=ORIENTED_EDGE('',*,*,#340,.T.);
#480=ORIENTED_EDGE('',*,*,#337,.T.);
#481=ORIENTED_EDGE('',*,*,#345,.T.);
#482=ORIENTED_EDGE('',*,*,#335,.T.);
#483=ORIENTED_EDGE('',*,*,#339,.T.);
#484=ORIENTED_EDGE('',*,*,#342,.T.);
#485=CYLINDRICAL_SURFACE('',#535,5.);
#486=CYLINDRICAL_SURFACE('',#547,5.);
#487=CYLINDRICAL_SURFACE('',#550,5.);
#488=CYLINDRICAL_SURFACE('',#553,5.);
#489=CYLINDRICAL_SURFACE('',#563,1.5);
#490=CYLINDRICAL_SURFACE('',#565,1.5);
#491=CYLINDRICAL_SURFACE('',#567,1.5);
#492=CYLINDRICAL_SURFACE('',#569,1.5);
#493=ADVANCED_FACE('',(#46),#485,.T.);
#494=ADVANCED_FACE('',(#47),#27,.T.);
#495=ADVANCED_FACE('',(#48,#17,#18,#19,#20,#21),#28,.T.);
#496=ADVANCED_FACE('',(#49),#486,.T.);
#497=ADVANCED_FACE('',(#50),#29,.T.);
#498=ADVANCED_FACE('',(#51),#487,.T.);
#499=ADVANCED_FACE('',(#52),#30,.T.);
#500=ADVANCED_FACE('',(#53),#488,.T.);
#501=ADVANCED_FACE('',(#54),#31,.T.);
#502=ADVANCED_FACE('',(#55),#32,.F.);
#503=ADVANCED_FACE('',(#56),#33,.F.);
#504=ADVANCED_FACE('',(#57),#34,.F.);
#505=ADVANCED_FACE('',(#58),#35,.T.);
#506=ADVANCED_FACE('',(#59),#36,.T.);
#507=ADVANCED_FACE('',(#60),#37,.T.);
#508=ADVANCED_FACE('',(#61),#38,.T.);
#509=ADVANCED_FACE('',(#62),#489,.F.);
#510=ADVANCED_FACE('',(#63),#490,.F.);
#511=ADVANCED_FACE('',(#64),#491,.F.);
#512=ADVANCED_FACE('',(#65),#492,.F.);
#513=ADVANCED_FACE('',(#66,#22,#23,#24,#25,#26),#39,.F.);
#514=ADVANCED_FACE('',(#67),#40,.T.);
#515=ADVANCED_FACE('',(#68),#41,.T.);
#516=ADVANCED_FACE('',(#69),#42,.T.);
#517=ADVANCED_FACE('',(#70),#43,.T.);
#518=ADVANCED_FACE('',(#71),#44,.T.);
#519=ADVANCED_FACE('',(#72),#45,.F.);
#520=CLOSED_SHELL('',(#493,#494,#495,#496,#497,#498,#499,#500,#501,#502,
#503,#504,#505,#506,#507,#508,#509,#510,#511,#512,#513));
#521=CLOSED_SHELL('',(#514,#515,#516,#517,#518,#519));
#522=DERIVED_UNIT_ELEMENT(#524,1.);
#523=DERIVED_UNIT_ELEMENT(#867,-3.);
#524=(
MASS_UNIT()
NAMED_UNIT(*)
SI_UNIT(.KILO.,.GRAM.)
);
#525=DERIVED_UNIT((#522,#523));
#526=MEASURE_REPRESENTATION_ITEM('density measure',
POSITIVE_RATIO_MEASURE(7850.),#525);
#527=PROPERTY_DEFINITION_REPRESENTATION(#532,#529);
#528=PROPERTY_DEFINITION_REPRESENTATION(#533,#530);
#529=REPRESENTATION('material name',(#531),#864);
#530=REPRESENTATION('density',(#526),#864);
#531=DESCRIPTIVE_REPRESENTATION_ITEM('Steel','Steel');
#532=PROPERTY_DEFINITION('material property','material name',#874);
#533=PROPERTY_DEFINITION('material property','density of part',#874);
#534=AXIS2_PLACEMENT_3D('',#719,#578,#579);
#535=AXIS2_PLACEMENT_3D('',#720,#580,#581);
#536=AXIS2_PLACEMENT_3D('',#723,#582,#583);
#537=AXIS2_PLACEMENT_3D('',#727,#585,#586);
#538=AXIS2_PLACEMENT_3D('',#729,#588,#589);
#539=AXIS2_PLACEMENT_3D('',#735,#593,#594);
#540=AXIS2_PLACEMENT_3D('',#739,#596,#597);
#541=AXIS2_PLACEMENT_3D('',#743,#599,#600);
#542=AXIS2_PLACEMENT_3D('',#746,#602,#603);
#543=AXIS2_PLACEMENT_3D('',#760,#610,#611);
#544=AXIS2_PLACEMENT_3D('',#762,#612,#613);
#545=AXIS2_PLACEMENT_3D('',#764,#614,#615);
#546=AXIS2_PLACEMENT_3D('',#766,#616,#617);
#547=AXIS2_PLACEMENT_3D('',#767,#618,#619);
#548=AXIS2_PLACEMENT_3D('',#770,#621,#622);
#549=AXIS2_PLACEMENT_3D('',#771,#623,#624);
#550=AXIS2_PLACEMENT_3D('',#775,#627,#628);
#551=AXIS2_PLACEMENT_3D('',#778,#630,#631);
#552=AXIS2_PLACEMENT_3D('',#779,#632,#633);
#553=AXIS2_PLACEMENT_3D('',#783,#636,#637);
#554=AXIS2_PLACEMENT_3D('',#786,#639,#640);
#555=AXIS2_PLACEMENT_3D('',#787,#641,#642);
#556=AXIS2_PLACEMENT_3D('',#789,#644,#645);
#557=AXIS2_PLACEMENT_3D('',#795,#649,#650);
#558=AXIS2_PLACEMENT_3D('',#799,#653,#654);
#559=AXIS2_PLACEMENT_3D('',#803,#657,#658);
#560=AXIS2_PLACEMENT_3D('',#809,#662,#663);
#561=AXIS2_PLACEMENT_3D('',#813,#666,#667);
#562=AXIS2_PLACEMENT_3D('',#817,#670,#671);
#563=AXIS2_PLACEMENT_3D('',#819,#673,#674);
#564=AXIS2_PLACEMENT_3D('',#822,#676,#677);
#565=AXIS2_PLACEMENT_3D('',#823,#678,#679);
#566=AXIS2_PLACEMENT_3D('',#826,#681,#682);
#567=AXIS2_PLACEMENT_3D('',#827,#683,#684);
#568=AXIS2_PLACEMENT_3D('',#830,#686,#687);
#569=AXIS2_PLACEMENT_3D('',#831,#688,#689);
#570=AXIS2_PLACEMENT_3D('',#834,#691,#692);
#571=AXIS2_PLACEMENT_3D('',#835,#693,#694);
#572=AXIS2_PLACEMENT_3D('',#836,#695,#696);
#573=AXIS2_PLACEMENT_3D('',#845,#701,#702);
#574=AXIS2_PLACEMENT_3D('',#851,#706,#707);
#575=AXIS2_PLACEMENT_3D('',#857,#711,#712);
#576=AXIS2_PLACEMENT_3D('',#860,#715,#716);
#577=AXIS2_PLACEMENT_3D('',#861,#717,#718);
#578=DIRECTION('axis',(0.,0.,1.));
#579=DIRECTION('refdir',(1.,0.,0.));
#580=DIRECTION('center_axis',(0.,1.,0.));
#581=DIRECTION('ref_axis',(-0.707106781186547,0.,-0.707106781186547));
#582=DIRECTION('center_axis',(0.,-1.,0.));
#583=DIRECTION('ref_axis',(-0.707106781186547,0.,-0.707106781186547));
#584=DIRECTION('',(0.,-1.,0.));
#585=DIRECTION('center_axis',(0.,1.,0.));
#586=DIRECTION('ref_axis',(-0.707106781186547,0.,-0.707106781186547));
#587=DIRECTION('',(0.,1.,0.));
#588=DIRECTION('center_axis',(0.,0.,-1.));
#589=DIRECTION('ref_axis',(-1.,0.,0.));
#590=DIRECTION('',(-1.,0.,0.));
#591=DIRECTION('',(0.,1.,0.));
#592=DIRECTION('',(1.,0.,0.));
#593=DIRECTION('center_axis',(0.,1.,0.));
#594=DIRECTION('ref_axis',(1.,0.,0.));
#595=DIRECTION('',(0.,0.,1.));
#596=DIRECTION('center_axis',(0.,-1.,0.));
#597=DIRECTION('ref_axis',(-0.707106781186547,0.,0.707106781186547));
#598=DIRECTION('',(1.,0.,0.));
#599=DIRECTION('center_axis',(0.,-1.,0.));
#600=DIRECTION('ref_axis',(0.707106781186547,0.,0.707106781186547));
#601=DIRECTION('',(0.,0.,-1.));
#602=DIRECTION('center_axis',(0.,-1.,0.));
#603=DIRECTION('ref_axis',(0.707106781186547,0.,-0.707106781186547));
#604=DIRECTION('',(0.,0.,1.));
#605=DIRECTION('',(-1.,0.,0.));
#606=DIRECTION('',(0.,0.,-1.));
#607=DIRECTION('',(1.,0.,0.));
#608=DIRECTION('',(0.,0.,1.));
#609=DIRECTION('',(-1.,0.,0.));
#610=DIRECTION('center_axis',(0.,-1.,0.));
#611=DIRECTION('ref_axis',(1.,0.,0.));
#612=DIRECTION('center_axis',(0.,-1.,0.));
#613=DIRECTION('ref_axis',(1.,0.,0.));
#614=DIRECTION('center_axis',(0.,-1.,0.));
#615=DIRECTION('ref_axis',(1.,0.,0.));
#616=DIRECTION('center_axis',(0.,-1.,0.));
#617=DIRECTION('ref_axis',(1.,0.,0.));
#618=DIRECTION('center_axis',(0.,1.,0.));
#619=DIRECTION('ref_axis',(0.707106781186547,0.,-0.707106781186547));
#620=DIRECTION('',(0.,-1.,0.));
#621=DIRECTION('center_axis',(0.,1.,0.));
#622=DIRECTION('ref_axis',(0.707106781186547,0.,-0.707106781186547));
#623=DIRECTION('center_axis',(1.,0.,0.));
#624=DIRECTION('ref_axis',(0.,0.,-1.));
#625=DIRECTION('',(0.,1.,0.));
#626=DIRECTION('',(0.,0.,1.));
#627=DIRECTION('center_axis',(0.,1.,0.));
#628=DIRECTION('ref_axis',(0.707106781186547,0.,0.707106781186547));
#629=DIRECTION('',(0.,-1.,0.));
#630=DIRECTION('center_axis',(0.,1.,0.));
#631=DIRECTION('ref_axis',(0.707106781186547,0.,0.707106781186547));
#632=DIRECTION('center_axis',(0.,0.,1.));
#633=DIRECTION('ref_axis',(1.,0.,0.));
#634=DIRECTION('',(0.,1.,0.));
#635=DIRECTION('',(-1.,0.,0.));
#636=DIRECTION('center_axis',(0.,1.,0.));
#637=DIRECTION('ref_axis',(-0.707106781186547,0.,0.707106781186547));
#638=DIRECTION('',(0.,-1.,0.));
#639=DIRECTION('center_axis',(0.,1.,0.));
#640=DIRECTION('ref_axis',(-0.707106781186547,0.,0.707106781186547));
#641=DIRECTION('center_axis',(-1.,0.,0.));
#642=DIRECTION('ref_axis',(0.,0.,1.));
#643=DIRECTION('',(0.,0.,-1.));
#644=DIRECTION('center_axis',(1.,0.,0.));
#645=DIRECTION('ref_axis',(0.,0.,1.));
#646=DIRECTION('',(0.,1.,0.));
#647=DIRECTION('',(0.,0.,1.));
#648=DIRECTION('',(0.,-1.,0.));
#649=DIRECTION('center_axis',(0.,0.,1.));
#650=DIRECTION('ref_axis',(-1.,0.,0.));
#651=DIRECTION('',(-1.,0.,0.));
#652=DIRECTION('',(0.,-1.,0.));
#653=DIRECTION('center_axis',(0.,-1.,0.));
#654=DIRECTION('ref_axis',(0.,0.,-1.));
#655=DIRECTION('',(1.,0.,0.));
#656=DIRECTION('',(0.,0.,-1.));
#657=DIRECTION('center_axis',(1.,0.,0.));
#658=DIRECTION('ref_axis',(0.,0.,-1.));
#659=DIRECTION('',(0.,0.,-1.));
#660=DIRECTION('',(0.,1.,0.));
#661=DIRECTION('',(0.,1.,0.));
#662=DIRECTION('center_axis',(0.,0.,-1.));
#663=DIRECTION('ref_axis',(-1.,0.,0.));
#664=DIRECTION('',(0.,1.,0.));
#665=DIRECTION('',(-1.,0.,0.));
#666=DIRECTION('center_axis',(-1.,0.,0.));
#667=DIRECTION('ref_axis',(0.,0.,1.));
#668=DIRECTION('',(0.,0.,1.));
#669=DIRECTION('',(0.,1.,0.));
#670=DIRECTION('center_axis',(0.,0.,1.));
#671=DIRECTION('ref_axis',(1.,0.,0.));
#672=DIRECTION('',(1.,0.,0.));
#673=DIRECTION('center_axis',(0.,1.,0.));
#674=DIRECTION('ref_axis',(1.,0.,0.));
#675=DIRECTION('',(0.,-1.,0.));
#676=DIRECTION('center_axis',(0.,-1.,0.));
#677=DIRECTION('ref_axis',(1.,0.,0.));
#678=DIRECTION('center_axis',(0.,1.,0.));
#679=DIRECTION('ref_axis',(1.,0.,0.));
#680=DIRECTION('',(0.,-1.,0.));
#681=DIRECTION('center_axis',(0.,-1.,0.));
#682=DIRECTION('ref_axis',(1.,0.,0.));
#683=DIRECTION('center_axis',(0.,1.,0.));
#684=DIRECTION('ref_axis',(1.,0.,0.));
#685=DIRECTION('',(0.,-1.,0.));
#686=DIRECTION('center_axis',(0.,-1.,0.));
#687=DIRECTION('ref_axis',(1.,0.,0.));
#688=DIRECTION('center_axis',(0.,1.,0.));
#689=DIRECTION('ref_axis',(1.,0.,0.));
#690=DIRECTION('',(0.,-1.,0.));
#691=DIRECTION('center_axis',(0.,-1.,0.));
#692=DIRECTION('ref_axis',(1.,0.,0.));
#693=DIRECTION('center_axis',(0.,1.,0.));
#694=DIRECTION('ref_axis',(1.,0.,0.));
#695=DIRECTION('center_axis',(1.,0.,0.));
#696=DIRECTION('ref_axis',(0.,0.,-1.));
#697=DIRECTION('',(0.,0.,1.));
#698=DIRECTION('',(0.,1.,0.));
#699=DIRECTION('',(0.,0.,-1.));
#700=DIRECTION('',(0.,1.,0.));
#701=DIRECTION('center_axis',(0.,0.,1.));
#702=DIRECTION('ref_axis',(1.,0.,0.));
#703=DIRECTION('',(-1.,0.,0.));
#704=DIRECTION('',(1.,0.,0.));
#705=DIRECTION('',(0.,1.,0.));
#706=DIRECTION('center_axis',(-1.,0.,0.));
#707=DIRECTION('ref_axis',(0.,0.,1.));
#708=DIRECTION('',(0.,0.,-1.));
#709=DIRECTION('',(0.,0.,1.));
#710=DIRECTION('',(0.,1.,0.));
#711=DIRECTION('center_axis',(0.,0.,-1.));
#712=DIRECTION('ref_axis',(-1.,0.,0.));
#713=DIRECTION('',(1.,0.,0.));
#714=DIRECTION('',(-1.,0.,0.));
#715=DIRECTION('center_axis',(0.,1.,0.));
#716=DIRECTION('ref_axis',(0.,0.,1.));
#717=DIRECTION('center_axis',(0.,1.,0.));
#718=DIRECTION('ref_axis',(1.,0.,0.));
#719=CARTESIAN_POINT('',(0.,0.,0.));
#720=CARTESIAN_POINT('Origin',(-57.7074645228898,0.,-56.));
#721=CARTESIAN_POINT('',(-62.7074645228898,13.,-56.));
#722=CARTESIAN_POINT('',(-57.7074645228898,13.,-61.));
#723=CARTESIAN_POINT('Origin',(-57.7074645228898,13.,-56.));
#724=CARTESIAN_POINT('',(-57.7074645228898,0.,-61.));
#725=CARTESIAN_POINT('',(-57.7074645228898,0.,-61.));
#726=CARTESIAN_POINT('',(-62.7074645228898,0.,-56.));
#727=CARTESIAN_POINT('Origin',(-57.7074645228898,0.,-56.));
#728=CARTESIAN_POINT('',(-62.7074645228898,0.,-56.));
#729=CARTESIAN_POINT('Origin',(33.4925354771102,0.,-61.));
#730=CARTESIAN_POINT('',(28.4925354771102,13.,-61.));
#731=CARTESIAN_POINT('',(-62.7074645228898,13.,-61.));
#732=CARTESIAN_POINT('',(28.4925354771102,0.,-61.));
#733=CARTESIAN_POINT('',(28.4925354771102,0.,-61.));
#734=CARTESIAN_POINT('',(-62.7074645228898,0.,-61.));
#735=CARTESIAN_POINT('Origin',(-14.6074645228898,13.,-5.50000000000001));
#736=CARTESIAN_POINT('',(-62.7074645228898,13.,45.));
#737=CARTESIAN_POINT('',(-62.7074645228898,13.,50.));
#738=CARTESIAN_POINT('',(-57.7074645228898,13.,50.));
#739=CARTESIAN_POINT('Origin',(-57.7074645228898,13.,45.));
#740=CARTESIAN_POINT('',(28.4925354771102,13.,50.));
#741=CARTESIAN_POINT('',(33.4925354771102,13.,50.));
#742=CARTESIAN_POINT('',(33.4925354771102,13.,45.));
#743=CARTESIAN_POINT('Origin',(28.4925354771102,13.,45.));
#744=CARTESIAN_POINT('',(33.4925354771102,13.,-56.));
#745=CARTESIAN_POINT('',(33.4925354771102,13.,-61.));
#746=CARTESIAN_POINT('Origin',(28.4925354771102,13.,-56.));
#747=CARTESIAN_POINT('',(-6.8436178722898,13.,14.970608238));
#748=CARTESIAN_POINT('',(-6.8436178722898,13.,37.4504593408032));
#749=CARTESIAN_POINT('',(-6.8436178722898,13.,4.73530411899999));
#750=CARTESIAN_POINT('',(-54.5074645228898,13.,37.4504593408032));
#751=CARTESIAN_POINT('',(-10.7255411975898,13.,37.4504593408032));
#752=CARTESIAN_POINT('',(-54.5074645228898,13.,-25.029391762));
#753=CARTESIAN_POINT('',(-54.5074645228898,13.,15.9752296704016));
#754=CARTESIAN_POINT('',(25.4925354771102,13.,-25.029391762));
#755=CARTESIAN_POINT('',(-54.5074645228898,13.,-25.029391762));
#756=CARTESIAN_POINT('',(25.4925354771102,13.,14.970608238));
#757=CARTESIAN_POINT('',(25.4925354771102,13.,-25.029391762));
#758=CARTESIAN_POINT('',(25.4925354771102,13.,14.970608238));
#759=CARTESIAN_POINT('',(26.9925354771102,13.,45.));
#760=CARTESIAN_POINT('Origin',(28.4925354771102,13.,45.));
#761=CARTESIAN_POINT('',(26.9925354771102,13.,-56.));
#762=CARTESIAN_POINT('Origin',(28.4925354771102,13.,-56.));
#763=CARTESIAN_POINT('',(-59.2074645228898,13.,-56.));
#764=CARTESIAN_POINT('Origin',(-57.7074645228898,13.,-56.));
#765=CARTESIAN_POINT('',(-59.2074645228898,13.,45.));
#766=CARTESIAN_POINT('Origin',(-57.7074645228898,13.,45.));
#767=CARTESIAN_POINT('Origin',(28.4925354771102,0.,-56.));
#768=CARTESIAN_POINT('',(33.4925354771102,0.,-56.));
#769=CARTESIAN_POINT('',(33.4925354771102,0.,-56.));
#770=CARTESIAN_POINT('Origin',(28.4925354771102,0.,-56.));
#771=CARTESIAN_POINT('Origin',(33.4925354771102,0.,50.));
#772=CARTESIAN_POINT('',(33.4925354771102,0.,45.));
#773=CARTESIAN_POINT('',(33.4925354771102,0.,45.));
#774=CARTESIAN_POINT('',(33.4925354771102,0.,-61.));
#775=CARTESIAN_POINT('Origin',(28.4925354771102,0.,45.));
#776=CARTESIAN_POINT('',(28.4925354771102,0.,50.));
#777=CARTESIAN_POINT('',(28.4925354771102,0.,50.));
#778=CARTESIAN_POINT('Origin',(28.4925354771102,0.,45.));
#779=CARTESIAN_POINT('Origin',(-62.7074645228898,0.,50.));
#780=CARTESIAN_POINT('',(-57.7074645228898,0.,50.));
#781=CARTESIAN_POINT('',(-57.7074645228898,0.,50.));
#782=CARTESIAN_POINT('',(33.4925354771102,0.,50.));
#783=CARTESIAN_POINT('Origin',(-57.7074645228898,0.,45.));
#784=CARTESIAN_POINT('',(-62.7074645228898,0.,45.));
#785=CARTESIAN_POINT('',(-62.7074645228898,0.,45.));
#786=CARTESIAN_POINT('Origin',(-57.7074645228898,0.,45.));
#787=CARTESIAN_POINT('Origin',(-62.7074645228898,0.,-61.));
#788=CARTESIAN_POINT('',(-62.7074645228898,0.,50.));
#789=CARTESIAN_POINT('Origin',(-6.8436178722898,13.,14.970608238));
#790=CARTESIAN_POINT('',(-6.8436178722898,4.,14.970608238));
#791=CARTESIAN_POINT('',(-6.8436178722898,6.5,14.970608238));
#792=CARTESIAN_POINT('',(-6.8436178722898,4.,37.4504593408032));
#793=CARTESIAN_POINT('',(-6.8436178722898,4.,14.970608238));
#794=CARTESIAN_POINT('',(-6.8436178722898,13.,37.4504593408032));
#795=CARTESIAN_POINT('Origin',(-6.8436178722898,13.,37.4504593408032));
#796=CARTESIAN_POINT('',(-54.5074645228898,4.,37.4504593408032));
#797=CARTESIAN_POINT('',(-6.8436178722898,4.,37.4504593408032));
#798=CARTESIAN_POINT('',(-54.5074645228898,13.,37.4504593408032));
#799=CARTESIAN_POINT('Origin',(-30.6755411975898,4.,26.2105337894016));
#800=CARTESIAN_POINT('',(-54.5074645228898,4.,14.970608238));
#801=CARTESIAN_POINT('',(-2.5915028602398,4.,14.970608238));
#802=CARTESIAN_POINT('',(-54.5074645228898,4.,37.4504593408032));
#803=CARTESIAN_POINT('Origin',(-54.5074645228898,0.,14.970608238));
#804=CARTESIAN_POINT('',(-54.5074645228898,0.,14.970608238));
#805=CARTESIAN_POINT('',(-54.5074645228898,0.,-25.029391762));
#806=CARTESIAN_POINT('',(-54.5074645228898,0.,14.970608238));
#807=CARTESIAN_POINT('',(-54.5074645228898,0.,-25.029391762));
#808=CARTESIAN_POINT('',(-54.5074645228898,0.,14.970608238));
#809=CARTESIAN_POINT('Origin',(25.4925354771102,0.,14.970608238));
#810=CARTESIAN_POINT('',(25.4925354771102,0.,14.970608238));
#811=CARTESIAN_POINT('',(25.4925354771102,0.,14.970608238));
#812=CARTESIAN_POINT('',(25.4925354771102,0.,14.970608238));
#813=CARTESIAN_POINT('Origin',(25.4925354771102,0.,-25.029391762));
#814=CARTESIAN_POINT('',(25.4925354771102,0.,-25.029391762));
#815=CARTESIAN_POINT('',(25.4925354771102,0.,-25.029391762));
#816=CARTESIAN_POINT('',(25.4925354771102,0.,-25.029391762));
#817=CARTESIAN_POINT('Origin',(-54.5074645228898,0.,-25.029391762));
#818=CARTESIAN_POINT('',(-54.5074645228898,0.,-25.029391762));
#819=CARTESIAN_POINT('Origin',(28.4925354771102,0.,45.));
#820=CARTESIAN_POINT('',(26.9925354771102,0.,45.));
#821=CARTESIAN_POINT('',(26.9925354771102,0.,45.));
#822=CARTESIAN_POINT('Origin',(28.4925354771102,0.,45.));
#823=CARTESIAN_POINT('Origin',(28.4925354771102,0.,-56.));
#824=CARTESIAN_POINT('',(26.9925354771102,0.,-56.));
#825=CARTESIAN_POINT('',(26.9925354771102,0.,-56.));
#826=CARTESIAN_POINT('Origin',(28.4925354771102,0.,-56.));
#827=CARTESIAN_POINT('Origin',(-57.7074645228898,0.,-56.));
#828=CARTESIAN_POINT('',(-59.2074645228898,0.,-56.));
#829=CARTESIAN_POINT('',(-59.2074645228898,0.,-56.));
#830=CARTESIAN_POINT('Origin',(-57.7074645228898,0.,-56.));
#831=CARTESIAN_POINT('Origin',(-57.7074645228898,0.,45.));
#832=CARTESIAN_POINT('',(-59.2074645228898,0.,45.));
#833=CARTESIAN_POINT('',(-59.2074645228898,0.,45.));
#834=CARTESIAN_POINT('Origin',(-57.7074645228898,0.,45.));
#835=CARTESIAN_POINT('Origin',(-14.6074645228898,0.,-5.50000000000001));
#836=CARTESIAN_POINT('Origin',(25.4925354771102,0.,14.970608238));
#837=CARTESIAN_POINT('',(25.4925354771102,0.,-25.029391762));
#838=CARTESIAN_POINT('',(25.4925354771102,0.,14.970608238));
#839=CARTESIAN_POINT('',(25.4925354771102,0.,-25.029391762));
#840=CARTESIAN_POINT('',(25.4925354771102,4.,-25.029391762));
#841=CARTESIAN_POINT('',(25.4925354771102,0.,-25.029391762));
#842=CARTESIAN_POINT('',(25.4925354771102,4.,14.970608238));
#843=CARTESIAN_POINT('',(25.4925354771102,4.,-25.029391762));
#844=CARTESIAN_POINT('',(25.4925354771102,0.,14.970608238));
#845=CARTESIAN_POINT('Origin',(-54.5074645228898,0.,14.970608238));
#846=CARTESIAN_POINT('',(-54.5074645228898,0.,14.970608238));
#847=CARTESIAN_POINT('',(25.4925354771102,0.,14.970608238));
#848=CARTESIAN_POINT('',(-54.5074645228898,4.,14.970608238));
#849=CARTESIAN_POINT('',(25.4925354771102,4.,14.970608238));
#850=CARTESIAN_POINT('',(-54.5074645228898,0.,14.970608238));
#851=CARTESIAN_POINT('Origin',(-54.5074645228898,0.,-25.029391762));
#852=CARTESIAN_POINT('',(-54.5074645228898,0.,-25.029391762));
#853=CARTESIAN_POINT('',(-54.5074645228898,0.,14.970608238));
#854=CARTESIAN_POINT('',(-54.5074645228898,4.,-25.029391762));
#855=CARTESIAN_POINT('',(-54.5074645228898,4.,14.970608238));
#856=CARTESIAN_POINT('',(-54.5074645228898,0.,-25.029391762));
#857=CARTESIAN_POINT('Origin',(25.4925354771102,0.,-25.029391762));
#858=CARTESIAN_POINT('',(-54.5074645228898,0.,-25.029391762));
#859=CARTESIAN_POINT('',(-54.5074645228898,4.,-25.029391762));
#860=CARTESIAN_POINT('Origin',(-14.5074645228898,4.,-5.029391762));
#861=CARTESIAN_POINT('Origin',(-14.5074645228898,0.,-5.029391762));
#862=UNCERTAINTY_MEASURE_WITH_UNIT(LENGTH_MEASURE(0.01),#866,
'DISTANCE_ACCURACY_VALUE',
'Maximum model space distance between geometric entities at asserted c
onnectivities');
#863=UNCERTAINTY_MEASURE_WITH_UNIT(LENGTH_MEASURE(0.01),#866,
'DISTANCE_ACCURACY_VALUE',
'Maximum model space distance between geometric entities at asserted c
onnectivities');
#864=(
GEOMETRIC_REPRESENTATION_CONTEXT(3)
GLOBAL_UNCERTAINTY_ASSIGNED_CONTEXT((#862))
GLOBAL_UNIT_ASSIGNED_CONTEXT((#866,#868,#869))
REPRESENTATION_CONTEXT('','3D')
);
#865=(
GEOMETRIC_REPRESENTATION_CONTEXT(3)
GLOBAL_UNCERTAINTY_ASSIGNED_CONTEXT((#863))
GLOBAL_UNIT_ASSIGNED_CONTEXT((#866,#868,#869))
REPRESENTATION_CONTEXT('','3D')
);
#866=(
LENGTH_UNIT()
NAMED_UNIT(*)
SI_UNIT(.MILLI.,.METRE.)
);
#867=(
LENGTH_UNIT()
NAMED_UNIT(*)
SI_UNIT($,.METRE.)
);
#868=(
NAMED_UNIT(*)
PLANE_ANGLE_UNIT()
SI_UNIT($,.RADIAN.)
);
#869=(
NAMED_UNIT(*)
SI_UNIT($,.STERADIAN.)
SOLID_ANGLE_UNIT()
);
#870=SHAPE_DEFINITION_REPRESENTATION(#871,#872);
#871=PRODUCT_DEFINITION_SHAPE('',$,#874);
#872=SHAPE_REPRESENTATION('',(#534),#864);
#873=PRODUCT_DEFINITION_CONTEXT('part definition',#878,'design');
#874=PRODUCT_DEFINITION('2026-02-05-20-27-14-774','Back-display',#875,#873);
#875=PRODUCT_DEFINITION_FORMATION('',$,#880);
#876=PRODUCT_RELATED_PRODUCT_CATEGORY('Back-display','Back-display',(#880));
#877=APPLICATION_PROTOCOL_DEFINITION('international standard',
'automotive_design',2009,#878);
#878=APPLICATION_CONTEXT(
'Core Data for Automotive Mechanical Design Process');
#879=PRODUCT_CONTEXT('part definition',#878,'mechanical');
#880=PRODUCT('2026-02-05-20-27-14-774','Back-display',$,(#879));
#881=PRESENTATION_STYLE_ASSIGNMENT((#882));
#882=SURFACE_STYLE_USAGE(.BOTH.,#883);
#883=SURFACE_SIDE_STYLE('',(#884));
#884=SURFACE_STYLE_FILL_AREA(#885);
#885=FILL_AREA_STYLE('Steel - Satin',(#886));
#886=FILL_AREA_STYLE_COLOUR('Steel - Satin',#887);
#887=COLOUR_RGB('Steel - Satin',0.627450980392157,0.627450980392157,0.627450980392157);
ENDSEC;
END-ISO-10303-21;
