ISO-10303-21;
HEADER;
/* Generated by software containing ST-Developer
 * from STEP Tools, Inc. (www.steptools.com) 
 */

FILE_DESCRIPTION(
/* description */ (''),
/* implementation_level */ '2;1');

FILE_NAME(
/* name */ 'Back-display.step',
/* time_stamp */ '2026-02-05T21:17:25+01:00',
/* author */ (''),
/* organization */ (''),
/* preprocessor_version */ 'ST-DEVELOPER v20.1',
/* originating_system */ 'Autodesk Translation Framework v14.21.0.0',
/* authorisation */ '');

FILE_SCHEMA (('AUTOMOTIVE_DESIGN { 1 0 10303 214 3 1 1 }'));
ENDSEC;

DATA;
#10=MECHANICAL_DESIGN_GEOMETRIC_PRESENTATION_REPRESENTATION('',(#13,#14),
#626);
#11=SHAPE_REPRESENTATION_RELATIONSHIP('SRR','None',#633,#12);
#12=ADVANCED_BREP_SHAPE_REPRESENTATION('',(#15,#16),#625);
#13=STYLED_ITEM('',(#642),#15);
#14=STYLED_ITEM('',(#642),#16);
#15=MANIFOLD_SOLID_BREP('Body1',#381);
#16=MANIFOLD_SOLID_BREP('Body2',#382);
#17=FACE_BOUND('',#72,.T.);
#18=FACE_BOUND('',#73,.T.);
#19=FACE_BOUND('',#74,.T.);
#20=FACE_BOUND('',#75,.T.);
#21=FACE_BOUND('',#76,.T.);
#22=FACE_BOUND('',#78,.T.);
#23=FACE_BOUND('',#79,.T.);
#24=FACE_BOUND('',#80,.T.);
#25=FACE_BOUND('',#81,.T.);
#26=FACE_BOUND('',#82,.T.);
#27=CIRCLE('',#401,1.5);
#28=CIRCLE('',#402,1.5);
#29=CIRCLE('',#404,1.5);
#30=CIRCLE('',#405,1.5);
#31=CIRCLE('',#407,1.5);
#32=CIRCLE('',#408,1.5);
#33=CIRCLE('',#410,1.5);
#34=CIRCLE('',#411,1.5);
#35=CYLINDRICAL_SURFACE('',#400,1.5);
#36=CYLINDRICAL_SURFACE('',#403,1.5);
#37=CYLINDRICAL_SURFACE('',#406,1.5);
#38=CYLINDRICAL_SURFACE('',#409,1.5);
#39=FACE_OUTER_BOUND('',#59,.T.);
#40=FACE_OUTER_BOUND('',#60,.T.);
#41=FACE_OUTER_BOUND('',#61,.T.);
#42=FACE_OUTER_BOUND('',#62,.T.);
#43=FACE_OUTER_BOUND('',#63,.T.);
#44=FACE_OUTER_BOUND('',#64,.T.);
#45=FACE_OUTER_BOUND('',#65,.T.);
#46=FACE_OUTER_BOUND('',#66,.T.);
#47=FACE_OUTER_BOUND('',#67,.T.);
#48=FACE_OUTER_BOUND('',#68,.T.);
#49=FACE_OUTER_BOUND('',#69,.T.);
#50=FACE_OUTER_BOUND('',#70,.T.);
#51=FACE_OUTER_BOUND('',#71,.T.);
#52=FACE_OUTER_BOUND('',#77,.T.);
#53=FACE_OUTER_BOUND('',#83,.T.);
#54=FACE_OUTER_BOUND('',#84,.T.);
#55=FACE_OUTER_BOUND('',#85,.T.);
#56=FACE_OUTER_BOUND('',#86,.T.);
#57=FACE_OUTER_BOUND('',#87,.T.);
#58=FACE_OUTER_BOUND('',#88,.T.);
#59=EDGE_LOOP('',(#249,#250,#251,#252));
#60=EDGE_LOOP('',(#253,#254,#255,#256));
#61=EDGE_LOOP('',(#257,#258,#259,#260));
#62=EDGE_LOOP('',(#261,#262,#263,#264));
#63=EDGE_LOOP('',(#265,#266,#267,#268));
#64=EDGE_LOOP('',(#269,#270,#271,#272));
#65=EDGE_LOOP('',(#273,#274,#275,#276));
#66=EDGE_LOOP('',(#277,#278,#279,#280));
#67=EDGE_LOOP('',(#281,#282,#283,#284));
#68=EDGE_LOOP('',(#285,#286,#287,#288));
#69=EDGE_LOOP('',(#289,#290,#291,#292));
#70=EDGE_LOOP('',(#293,#294,#295,#296));
#71=EDGE_LOOP('',(#297,#298,#299,#300));
#72=EDGE_LOOP('',(#301));
#73=EDGE_LOOP('',(#302));
#74=EDGE_LOOP('',(#303));
#75=EDGE_LOOP('',(#304));
#76=EDGE_LOOP('',(#305,#306,#307,#308));
#77=EDGE_LOOP('',(#309,#310,#311,#312));
#78=EDGE_LOOP('',(#313));
#79=EDGE_LOOP('',(#314));
#80=EDGE_LOOP('',(#315));
#81=EDGE_LOOP('',(#316));
#82=EDGE_LOOP('',(#317,#318,#319,#320));
#83=EDGE_LOOP('',(#321,#322,#323,#324));
#84=EDGE_LOOP('',(#325,#326,#327,#328));
#85=EDGE_LOOP('',(#329,#330,#331,#332));
#86=EDGE_LOOP('',(#333,#334,#335,#336));
#87=EDGE_LOOP('',(#337,#338,#339,#340));
#88=EDGE_LOOP('',(#341,#342,#343,#344));
#89=LINE('',#526,#129);
#90=LINE('',#528,#130);
#91=LINE('',#530,#131);
#92=LINE('',#531,#132);
#93=LINE('',#534,#133);
#94=LINE('',#536,#134);
#95=LINE('',#537,#135);
#96=LINE('',#540,#136);
#97=LINE('',#542,#137);
#98=LINE('',#543,#138);
#99=LINE('',#545,#139);
#100=LINE('',#546,#140);
#101=LINE('',#551,#141);
#102=LINE('',#557,#142);
#103=LINE('',#563,#143);
#104=LINE('',#569,#144);
#105=LINE('',#574,#145);
#106=LINE('',#576,#146);
#107=LINE('',#578,#147);
#108=LINE('',#579,#148);
#109=LINE('',#582,#149);
#110=LINE('',#584,#150);
#111=LINE('',#585,#151);
#112=LINE('',#588,#152);
#113=LINE('',#590,#153);
#114=LINE('',#591,#154);
#115=LINE('',#593,#155);
#116=LINE('',#594,#156);
#117=LINE('',#600,#157);
#118=LINE('',#602,#158);
#119=LINE('',#604,#159);
#120=LINE('',#605,#160);
#121=LINE('',#608,#161);
#122=LINE('',#610,#162);
#123=LINE('',#611,#163);
#124=LINE('',#614,#164);
#125=LINE('',#616,#165);
#126=LINE('',#617,#166);
#127=LINE('',#619,#167);
#128=LINE('',#620,#168);
#129=VECTOR('',#428,10.);
#130=VECTOR('',#429,10.);
#131=VECTOR('',#430,10.);
#132=VECTOR('',#431,10.);
#133=VECTOR('',#434,10.);
#134=VECTOR('',#435,10.);
#135=VECTOR('',#436,10.);
#136=VECTOR('',#439,10.);
#137=VECTOR('',#440,10.);
#138=VECTOR('',#441,10.);
#139=VECTOR('',#444,10.);
#140=VECTOR('',#445,10.);
#141=VECTOR('',#450,1.5);
#142=VECTOR('',#457,1.5);
#143=VECTOR('',#464,1.5);
#144=VECTOR('',#471,1.5);
#145=VECTOR('',#476,10.);
#146=VECTOR('',#477,10.);
#147=VECTOR('',#478,10.);
#148=VECTOR('',#479,10.);
#149=VECTOR('',#482,10.);
#150=VECTOR('',#483,10.);
#151=VECTOR('',#484,10.);
#152=VECTOR('',#487,10.);
#153=VECTOR('',#488,10.);
#154=VECTOR('',#489,10.);
#155=VECTOR('',#492,10.);
#156=VECTOR('',#493,10.);
#157=VECTOR('',#500,10.);
#158=VECTOR('',#501,10.);
#159=VECTOR('',#502,10.);
#160=VECTOR('',#503,10.);
#161=VECTOR('',#506,10.);
#162=VECTOR('',#507,10.);
#163=VECTOR('',#508,10.);
#164=VECTOR('',#511,10.);
#165=VECTOR('',#512,10.);
#166=VECTOR('',#513,10.);
#167=VECTOR('',#516,10.);
#168=VECTOR('',#517,10.);
#169=VERTEX_POINT('',#524);
#170=VERTEX_POINT('',#525);
#171=VERTEX_POINT('',#527);
#172=VERTEX_POINT('',#529);
#173=VERTEX_POINT('',#533);
#174=VERTEX_POINT('',#535);
#175=VERTEX_POINT('',#539);
#176=VERTEX_POINT('',#541);
#177=VERTEX_POINT('',#548);
#178=VERTEX_POINT('',#550);
#179=VERTEX_POINT('',#554);
#180=VERTEX_POINT('',#556);
#181=VERTEX_POINT('',#560);
#182=VERTEX_POINT('',#562);
#183=VERTEX_POINT('',#566);
#184=VERTEX_POINT('',#568);
#185=VERTEX_POINT('',#572);
#186=VERTEX_POINT('',#573);
#187=VERTEX_POINT('',#575);
#188=VERTEX_POINT('',#577);
#189=VERTEX_POINT('',#581);
#190=VERTEX_POINT('',#583);
#191=VERTEX_POINT('',#587);
#192=VERTEX_POINT('',#589);
#193=VERTEX_POINT('',#598);
#194=VERTEX_POINT('',#599);
#195=VERTEX_POINT('',#601);
#196=VERTEX_POINT('',#603);
#197=VERTEX_POINT('',#607);
#198=VERTEX_POINT('',#609);
#199=VERTEX_POINT('',#613);
#200=VERTEX_POINT('',#615);
#201=EDGE_CURVE('',#169,#170,#89,.T.);
#202=EDGE_CURVE('',#170,#171,#90,.T.);
#203=EDGE_CURVE('',#172,#171,#91,.T.);
#204=EDGE_CURVE('',#169,#172,#92,.T.);
#205=EDGE_CURVE('',#173,#169,#93,.T.);
#206=EDGE_CURVE('',#174,#172,#94,.T.);
#207=EDGE_CURVE('',#173,#174,#95,.T.);
#208=EDGE_CURVE('',#175,#173,#96,.T.);
#209=EDGE_CURVE('',#176,#174,#97,.T.);
#210=EDGE_CURVE('',#175,#176,#98,.T.);
#211=EDGE_CURVE('',#170,#175,#99,.T.);
#212=EDGE_CURVE('',#171,#176,#100,.T.);
#213=EDGE_CURVE('',#177,#177,#27,.T.);
#214=EDGE_CURVE('',#177,#178,#101,.T.);
#215=EDGE_CURVE('',#178,#178,#28,.T.);
#216=EDGE_CURVE('',#179,#179,#29,.T.);
#217=EDGE_CURVE('',#179,#180,#102,.T.);
#218=EDGE_CURVE('',#180,#180,#30,.T.);
#219=EDGE_CURVE('',#181,#181,#31,.T.);
#220=EDGE_CURVE('',#181,#182,#103,.T.);
#221=EDGE_CURVE('',#182,#182,#32,.T.);
#222=EDGE_CURVE('',#183,#183,#33,.T.);
#223=EDGE_CURVE('',#183,#184,#104,.T.);
#224=EDGE_CURVE('',#184,#184,#34,.T.);
#225=EDGE_CURVE('',#185,#186,#105,.T.);
#226=EDGE_CURVE('',#185,#187,#106,.T.);
#227=EDGE_CURVE('',#188,#187,#107,.T.);
#228=EDGE_CURVE('',#186,#188,#108,.T.);
#229=EDGE_CURVE('',#186,#189,#109,.T.);
#230=EDGE_CURVE('',#190,#188,#110,.T.);
#231=EDGE_CURVE('',#189,#190,#111,.T.);
#232=EDGE_CURVE('',#189,#191,#112,.T.);
#233=EDGE_CURVE('',#192,#190,#113,.T.);
#234=EDGE_CURVE('',#191,#192,#114,.T.);
#235=EDGE_CURVE('',#191,#185,#115,.T.);
#236=EDGE_CURVE('',#187,#192,#116,.T.);
#237=EDGE_CURVE('',#193,#194,#117,.T.);
#238=EDGE_CURVE('',#193,#195,#118,.T.);
#239=EDGE_CURVE('',#196,#195,#119,.T.);
#240=EDGE_CURVE('',#194,#196,#120,.T.);
#241=EDGE_CURVE('',#194,#197,#121,.T.);
#242=EDGE_CURVE('',#198,#196,#122,.T.);
#243=EDGE_CURVE('',#197,#198,#123,.T.);
#244=EDGE_CURVE('',#197,#199,#124,.T.);
#245=EDGE_CURVE('',#200,#198,#125,.T.);
#246=EDGE_CURVE('',#199,#200,#126,.T.);
#247=EDGE_CURVE('',#199,#193,#127,.T.);
#248=EDGE_CURVE('',#195,#200,#128,.T.);
#249=ORIENTED_EDGE('',*,*,#201,.T.);
#250=ORIENTED_EDGE('',*,*,#202,.T.);
#251=ORIENTED_EDGE('',*,*,#203,.F.);
#252=ORIENTED_EDGE('',*,*,#204,.F.);
#253=ORIENTED_EDGE('',*,*,#205,.T.);
#254=ORIENTED_EDGE('',*,*,#204,.T.);
#255=ORIENTED_EDGE('',*,*,#206,.F.);
#256=ORIENTED_EDGE('',*,*,#207,.F.);
#257=ORIENTED_EDGE('',*,*,#208,.T.);
#258=ORIENTED_EDGE('',*,*,#207,.T.);
#259=ORIENTED_EDGE('',*,*,#209,.F.);
#260=ORIENTED_EDGE('',*,*,#210,.F.);
#261=ORIENTED_EDGE('',*,*,#211,.T.);
#262=ORIENTED_EDGE('',*,*,#210,.T.);
#263=ORIENTED_EDGE('',*,*,#212,.F.);
#264=ORIENTED_EDGE('',*,*,#202,.F.);
#265=ORIENTED_EDGE('',*,*,#213,.F.);
#266=ORIENTED_EDGE('',*,*,#214,.T.);
#267=ORIENTED_EDGE('',*,*,#215,.T.);
#268=ORIENTED_EDGE('',*,*,#214,.F.);
#269=ORIENTED_EDGE('',*,*,#216,.F.);
#270=ORIENTED_EDGE('',*,*,#217,.T.);
#271=ORIENTED_EDGE('',*,*,#218,.T.);
#272=ORIENTED_EDGE('',*,*,#217,.F.);
#273=ORIENTED_EDGE('',*,*,#219,.F.);
#274=ORIENTED_EDGE('',*,*,#220,.T.);
#275=ORIENTED_EDGE('',*,*,#221,.T.);
#276=ORIENTED_EDGE('',*,*,#220,.F.);
#277=ORIENTED_EDGE('',*,*,#222,.F.);
#278=ORIENTED_EDGE('',*,*,#223,.T.);
#279=ORIENTED_EDGE('',*,*,#224,.T.);
#280=ORIENTED_EDGE('',*,*,#223,.F.);
#281=ORIENTED_EDGE('',*,*,#225,.F.);
#282=ORIENTED_EDGE('',*,*,#226,.T.);
#283=ORIENTED_EDGE('',*,*,#227,.F.);
#284=ORIENTED_EDGE('',*,*,#228,.F.);
#285=ORIENTED_EDGE('',*,*,#229,.F.);
#286=ORIENTED_EDGE('',*,*,#228,.T.);
#287=ORIENTED_EDGE('',*,*,#230,.F.);
#288=ORIENTED_EDGE('',*,*,#231,.F.);
#289=ORIENTED_EDGE('',*,*,#232,.F.);
#290=ORIENTED_EDGE('',*,*,#231,.T.);
#291=ORIENTED_EDGE('',*,*,#233,.F.);
#292=ORIENTED_EDGE('',*,*,#234,.F.);
#293=ORIENTED_EDGE('',*,*,#235,.F.);
#294=ORIENTED_EDGE('',*,*,#234,.T.);
#295=ORIENTED_EDGE('',*,*,#236,.F.);
#296=ORIENTED_EDGE('',*,*,#226,.F.);
#297=ORIENTED_EDGE('',*,*,#236,.T.);
#298=ORIENTED_EDGE('',*,*,#233,.T.);
#299=ORIENTED_EDGE('',*,*,#230,.T.);
#300=ORIENTED_EDGE('',*,*,#227,.T.);
#301=ORIENTED_EDGE('',*,*,#222,.T.);
#302=ORIENTED_EDGE('',*,*,#219,.T.);
#303=ORIENTED_EDGE('',*,*,#216,.T.);
#304=ORIENTED_EDGE('',*,*,#213,.T.);
#305=ORIENTED_EDGE('',*,*,#212,.T.);
#306=ORIENTED_EDGE('',*,*,#209,.T.);
#307=ORIENTED_EDGE('',*,*,#206,.T.);
#308=ORIENTED_EDGE('',*,*,#203,.T.);
#309=ORIENTED_EDGE('',*,*,#235,.T.);
#310=ORIENTED_EDGE('',*,*,#225,.T.);
#311=ORIENTED_EDGE('',*,*,#229,.T.);
#312=ORIENTED_EDGE('',*,*,#232,.T.);
#313=ORIENTED_EDGE('',*,*,#224,.F.);
#314=ORIENTED_EDGE('',*,*,#221,.F.);
#315=ORIENTED_EDGE('',*,*,#218,.F.);
#316=ORIENTED_EDGE('',*,*,#215,.F.);
#317=ORIENTED_EDGE('',*,*,#211,.F.);
#318=ORIENTED_EDGE('',*,*,#201,.F.);
#319=ORIENTED_EDGE('',*,*,#205,.F.);
#320=ORIENTED_EDGE('',*,*,#208,.F.);
#321=ORIENTED_EDGE('',*,*,#237,.F.);
#322=ORIENTED_EDGE('',*,*,#238,.T.);
#323=ORIENTED_EDGE('',*,*,#239,.F.);
#324=ORIENTED_EDGE('',*,*,#240,.F.);
#325=ORIENTED_EDGE('',*,*,#241,.F.);
#326=ORIENTED_EDGE('',*,*,#240,.T.);
#327=ORIENTED_EDGE('',*,*,#242,.F.);
#328=ORIENTED_EDGE('',*,*,#243,.F.);
#329=ORIENTED_EDGE('',*,*,#244,.F.);
#330=ORIENTED_EDGE('',*,*,#243,.T.);
#331=ORIENTED_EDGE('',*,*,#245,.F.);
#332=ORIENTED_EDGE('',*,*,#246,.F.);
#333=ORIENTED_EDGE('',*,*,#247,.F.);
#334=ORIENTED_EDGE('',*,*,#246,.T.);
#335=ORIENTED_EDGE('',*,*,#248,.F.);
#336=ORIENTED_EDGE('',*,*,#238,.F.);
#337=ORIENTED_EDGE('',*,*,#248,.T.);
#338=ORIENTED_EDGE('',*,*,#245,.T.);
#339=ORIENTED_EDGE('',*,*,#242,.T.);
#340=ORIENTED_EDGE('',*,*,#239,.T.);
#341=ORIENTED_EDGE('',*,*,#247,.T.);
#342=ORIENTED_EDGE('',*,*,#237,.T.);
#343=ORIENTED_EDGE('',*,*,#241,.T.);
#344=ORIENTED_EDGE('',*,*,#244,.T.);
#345=PLANE('',#396);
#346=PLANE('',#397);
#347=PLANE('',#398);
#348=PLANE('',#399);
#349=PLANE('',#412);
#350=PLANE('',#413);
#351=PLANE('',#414);
#352=PLANE('',#415);
#353=PLANE('',#416);
#354=PLANE('',#417);
#355=PLANE('',#418);
#356=PLANE('',#419);
#357=PLANE('',#420);
#358=PLANE('',#421);
#359=PLANE('',#422);
#360=PLANE('',#423);
#361=ADVANCED_FACE('',(#39),#345,.T.);
#362=ADVANCED_FACE('',(#40),#346,.T.);
#363=ADVANCED_FACE('',(#41),#347,.T.);
#364=ADVANCED_FACE('',(#42),#348,.T.);
#365=ADVANCED_FACE('',(#43),#35,.F.);
#366=ADVANCED_FACE('',(#44),#36,.F.);
#367=ADVANCED_FACE('',(#45),#37,.F.);
#368=ADVANCED_FACE('',(#46),#38,.F.);
#369=ADVANCED_FACE('',(#47),#349,.T.);
#370=ADVANCED_FACE('',(#48),#350,.T.);
#371=ADVANCED_FACE('',(#49),#351,.T.);
#372=ADVANCED_FACE('',(#50),#352,.T.);
#373=ADVANCED_FACE('',(#51,#17,#18,#19,#20,#21),#353,.T.);
#374=ADVANCED_FACE('',(#52,#22,#23,#24,#25,#26),#354,.F.);
#375=ADVANCED_FACE('',(#53),#355,.T.);
#376=ADVANCED_FACE('',(#54),#356,.T.);
#377=ADVANCED_FACE('',(#55),#357,.T.);
#378=ADVANCED_FACE('',(#56),#358,.T.);
#379=ADVANCED_FACE('',(#57),#359,.T.);
#380=ADVANCED_FACE('',(#58),#360,.F.);
#381=CLOSED_SHELL('',(#361,#362,#363,#364,#365,#366,#367,#368,#369,#370,
#371,#372,#373,#374));
#382=CLOSED_SHELL('',(#375,#376,#377,#378,#379,#380));
#383=DERIVED_UNIT_ELEMENT(#385,1.);
#384=DERIVED_UNIT_ELEMENT(#628,-3.);
#385=(
MASS_UNIT()
NAMED_UNIT(*)
SI_UNIT(.KILO.,.GRAM.)
);
#386=DERIVED_UNIT((#383,#384));
#387=MEASURE_REPRESENTATION_ITEM('density measure',
POSITIVE_RATIO_MEASURE(7850.),#386);
#388=PROPERTY_DEFINITION_REPRESENTATION(#393,#390);
#389=PROPERTY_DEFINITION_REPRESENTATION(#394,#391);
#390=REPRESENTATION('material name',(#392),#625);
#391=REPRESENTATION('density',(#387),#625);
#392=DESCRIPTIVE_REPRESENTATION_ITEM('Steel','Steel');
#393=PROPERTY_DEFINITION('material property','material name',#635);
#394=PROPERTY_DEFINITION('material property','density of part',#635);
#395=AXIS2_PLACEMENT_3D('',#522,#424,#425);
#396=AXIS2_PLACEMENT_3D('',#523,#426,#427);
#397=AXIS2_PLACEMENT_3D('',#532,#432,#433);
#398=AXIS2_PLACEMENT_3D('',#538,#437,#438);
#399=AXIS2_PLACEMENT_3D('',#544,#442,#443);
#400=AXIS2_PLACEMENT_3D('',#547,#446,#447);
#401=AXIS2_PLACEMENT_3D('',#549,#448,#449);
#402=AXIS2_PLACEMENT_3D('',#552,#451,#452);
#403=AXIS2_PLACEMENT_3D('',#553,#453,#454);
#404=AXIS2_PLACEMENT_3D('',#555,#455,#456);
#405=AXIS2_PLACEMENT_3D('',#558,#458,#459);
#406=AXIS2_PLACEMENT_3D('',#559,#460,#461);
#407=AXIS2_PLACEMENT_3D('',#561,#462,#463);
#408=AXIS2_PLACEMENT_3D('',#564,#465,#466);
#409=AXIS2_PLACEMENT_3D('',#565,#467,#468);
#410=AXIS2_PLACEMENT_3D('',#567,#469,#470);
#411=AXIS2_PLACEMENT_3D('',#570,#472,#473);
#412=AXIS2_PLACEMENT_3D('',#571,#474,#475);
#413=AXIS2_PLACEMENT_3D('',#580,#480,#481);
#414=AXIS2_PLACEMENT_3D('',#586,#485,#486);
#415=AXIS2_PLACEMENT_3D('',#592,#490,#491);
#416=AXIS2_PLACEMENT_3D('',#595,#494,#495);
#417=AXIS2_PLACEMENT_3D('',#596,#496,#497);
#418=AXIS2_PLACEMENT_3D('',#597,#498,#499);
#419=AXIS2_PLACEMENT_3D('',#606,#504,#505);
#420=AXIS2_PLACEMENT_3D('',#612,#509,#510);
#421=AXIS2_PLACEMENT_3D('',#618,#514,#515);
#422=AXIS2_PLACEMENT_3D('',#621,#518,#519);
#423=AXIS2_PLACEMENT_3D('',#622,#520,#521);
#424=DIRECTION('axis',(0.,0.,1.));
#425=DIRECTION('refdir',(1.,0.,0.));
#426=DIRECTION('center_axis',(1.,0.,0.));
#427=DIRECTION('ref_axis',(0.,0.,-1.));
#428=DIRECTION('',(0.,0.,-1.));
#429=DIRECTION('',(0.,1.,0.));
#430=DIRECTION('',(0.,0.,-1.));
#431=DIRECTION('',(0.,1.,0.));
#432=DIRECTION('center_axis',(0.,0.,-1.));
#433=DIRECTION('ref_axis',(-1.,0.,0.));
#434=DIRECTION('',(-1.,0.,0.));
#435=DIRECTION('',(-1.,0.,0.));
#436=DIRECTION('',(0.,1.,0.));
#437=DIRECTION('center_axis',(-1.,0.,0.));
#438=DIRECTION('ref_axis',(0.,0.,1.));
#439=DIRECTION('',(0.,0.,1.));
#440=DIRECTION('',(0.,0.,1.));
#441=DIRECTION('',(0.,1.,0.));
#442=DIRECTION('center_axis',(0.,0.,1.));
#443=DIRECTION('ref_axis',(1.,0.,0.));
#444=DIRECTION('',(1.,0.,0.));
#445=DIRECTION('',(1.,0.,0.));
#446=DIRECTION('center_axis',(0.,1.,0.));
#447=DIRECTION('ref_axis',(1.,0.,0.));
#448=DIRECTION('center_axis',(0.,-1.,0.));
#449=DIRECTION('ref_axis',(1.,0.,0.));
#450=DIRECTION('',(0.,-1.,0.));
#451=DIRECTION('center_axis',(0.,-1.,0.));
#452=DIRECTION('ref_axis',(1.,0.,0.));
#453=DIRECTION('center_axis',(0.,1.,0.));
#454=DIRECTION('ref_axis',(1.,0.,0.));
#455=DIRECTION('center_axis',(0.,-1.,0.));
#456=DIRECTION('ref_axis',(1.,0.,0.));
#457=DIRECTION('',(0.,-1.,0.));
#458=DIRECTION('center_axis',(0.,-1.,0.));
#459=DIRECTION('ref_axis',(1.,0.,0.));
#460=DIRECTION('center_axis',(0.,1.,0.));
#461=DIRECTION('ref_axis',(1.,0.,0.));
#462=DIRECTION('center_axis',(0.,-1.,0.));
#463=DIRECTION('ref_axis',(1.,0.,0.));
#464=DIRECTION('',(0.,-1.,0.));
#465=DIRECTION('center_axis',(0.,-1.,0.));
#466=DIRECTION('ref_axis',(1.,0.,0.));
#467=DIRECTION('center_axis',(0.,1.,0.));
#468=DIRECTION('ref_axis',(1.,0.,0.));
#469=DIRECTION('center_axis',(0.,-1.,0.));
#470=DIRECTION('ref_axis',(1.,0.,0.));
#471=DIRECTION('',(0.,-1.,0.));
#472=DIRECTION('center_axis',(0.,-1.,0.));
#473=DIRECTION('ref_axis',(1.,0.,0.));
#474=DIRECTION('center_axis',(1.,0.,0.));
#475=DIRECTION('ref_axis',(0.,0.,-1.));
#476=DIRECTION('',(0.,0.,1.));
#477=DIRECTION('',(0.,1.,0.));
#478=DIRECTION('',(0.,0.,-1.));
#479=DIRECTION('',(0.,1.,0.));
#480=DIRECTION('center_axis',(0.,0.,1.));
#481=DIRECTION('ref_axis',(1.,0.,0.));
#482=DIRECTION('',(-1.,0.,0.));
#483=DIRECTION('',(1.,0.,0.));
#484=DIRECTION('',(0.,1.,0.));
#485=DIRECTION('center_axis',(-1.,0.,0.));
#486=DIRECTION('ref_axis',(0.,0.,1.));
#487=DIRECTION('',(0.,0.,-1.));
#488=DIRECTION('',(0.,0.,1.));
#489=DIRECTION('',(0.,1.,0.));
#490=DIRECTION('center_axis',(0.,0.,-1.));
#491=DIRECTION('ref_axis',(-1.,0.,0.));
#492=DIRECTION('',(1.,0.,0.));
#493=DIRECTION('',(-1.,0.,0.));
#494=DIRECTION('center_axis',(0.,1.,0.));
#495=DIRECTION('ref_axis',(1.,0.,0.));
#496=DIRECTION('center_axis',(0.,1.,0.));
#497=DIRECTION('ref_axis',(1.,0.,0.));
#498=DIRECTION('center_axis',(1.,0.,0.));
#499=DIRECTION('ref_axis',(0.,0.,-1.));
#500=DIRECTION('',(0.,0.,1.));
#501=DIRECTION('',(0.,1.,0.));
#502=DIRECTION('',(0.,0.,-1.));
#503=DIRECTION('',(0.,1.,0.));
#504=DIRECTION('center_axis',(0.,0.,1.));
#505=DIRECTION('ref_axis',(1.,0.,0.));
#506=DIRECTION('',(-1.,0.,0.));
#507=DIRECTION('',(1.,0.,0.));
#508=DIRECTION('',(0.,1.,0.));
#509=DIRECTION('center_axis',(-1.,0.,0.));
#510=DIRECTION('ref_axis',(0.,0.,1.));
#511=DIRECTION('',(0.,0.,-1.));
#512=DIRECTION('',(0.,0.,1.));
#513=DIRECTION('',(0.,1.,0.));
#514=DIRECTION('center_axis',(0.,0.,-1.));
#515=DIRECTION('ref_axis',(-1.,0.,0.));
#516=DIRECTION('',(1.,0.,0.));
#517=DIRECTION('',(-1.,0.,0.));
#518=DIRECTION('center_axis',(0.,1.,0.));
#519=DIRECTION('ref_axis',(0.,0.,1.));
#520=DIRECTION('center_axis',(0.,1.,0.));
#521=DIRECTION('ref_axis',(1.,0.,0.));
#522=CARTESIAN_POINT('',(0.,0.,0.));
#523=CARTESIAN_POINT('Origin',(-47.729414431719,0.,8.29706082378923));
#524=CARTESIAN_POINT('',(-47.729414431719,0.,8.29706082378923));
#525=CARTESIAN_POINT('',(-47.729414431719,0.,-31.7029391762108));
#526=CARTESIAN_POINT('',(-47.729414431719,0.,8.29706082378923));
#527=CARTESIAN_POINT('',(-47.729414431719,10.,-31.7029391762108));
#528=CARTESIAN_POINT('',(-47.729414431719,0.,-31.7029391762108));
#529=CARTESIAN_POINT('',(-47.729414431719,10.,8.29706082378923));
#530=CARTESIAN_POINT('',(-47.729414431719,10.,8.29706082378923));
#531=CARTESIAN_POINT('',(-47.729414431719,0.,8.29706082378923));
#532=CARTESIAN_POINT('Origin',(32.270585568281,0.,8.29706082378923));
#533=CARTESIAN_POINT('',(32.270585568281,0.,8.29706082378923));
#534=CARTESIAN_POINT('',(32.270585568281,0.,8.29706082378923));
#535=CARTESIAN_POINT('',(32.270585568281,10.,8.29706082378923));
#536=CARTESIAN_POINT('',(32.270585568281,10.,8.29706082378923));
#537=CARTESIAN_POINT('',(32.270585568281,0.,8.29706082378923));
#538=CARTESIAN_POINT('Origin',(32.270585568281,0.,-31.7029391762108));
#539=CARTESIAN_POINT('',(32.270585568281,0.,-31.7029391762108));
#540=CARTESIAN_POINT('',(32.270585568281,0.,-31.7029391762108));
#541=CARTESIAN_POINT('',(32.270585568281,10.,-31.7029391762108));
#542=CARTESIAN_POINT('',(32.270585568281,10.,-31.7029391762108));
#543=CARTESIAN_POINT('',(32.270585568281,0.,-31.7029391762108));
#544=CARTESIAN_POINT('Origin',(-47.729414431719,0.,-31.7029391762108));
#545=CARTESIAN_POINT('',(-47.729414431719,0.,-31.7029391762108));
#546=CARTESIAN_POINT('',(-47.729414431719,10.,-31.7029391762108));
#547=CARTESIAN_POINT('Origin',(43.2925354771102,0.,-41.2));
#548=CARTESIAN_POINT('',(41.7925354771102,10.,-41.2));
#549=CARTESIAN_POINT('Origin',(43.2925354771102,10.,-41.2));
#550=CARTESIAN_POINT('',(41.7925354771102,0.,-41.2));
#551=CARTESIAN_POINT('',(41.7925354771102,0.,-41.2));
#552=CARTESIAN_POINT('Origin',(43.2925354771102,0.,-41.2));
#553=CARTESIAN_POINT('Origin',(-57.7074645228898,0.,45.));
#554=CARTESIAN_POINT('',(-59.2074645228898,10.,45.));
#555=CARTESIAN_POINT('Origin',(-57.7074645228898,10.,45.));
#556=CARTESIAN_POINT('',(-59.2074645228898,0.,45.));
#557=CARTESIAN_POINT('',(-59.2074645228898,0.,45.));
#558=CARTESIAN_POINT('Origin',(-57.7074645228898,0.,45.));
#559=CARTESIAN_POINT('Origin',(-57.7074645228898,0.,-41.2));
#560=CARTESIAN_POINT('',(-59.2074645228898,10.,-41.2));
#561=CARTESIAN_POINT('Origin',(-57.7074645228898,10.,-41.2));
#562=CARTESIAN_POINT('',(-59.2074645228898,0.,-41.2));
#563=CARTESIAN_POINT('',(-59.2074645228898,0.,-41.2));
#564=CARTESIAN_POINT('Origin',(-57.7074645228898,0.,-41.2));
#565=CARTESIAN_POINT('Origin',(43.2925354771102,0.,45.));
#566=CARTESIAN_POINT('',(41.7925354771102,10.,45.));
#567=CARTESIAN_POINT('Origin',(43.2925354771102,10.,45.));
#568=CARTESIAN_POINT('',(41.7925354771102,0.,45.));
#569=CARTESIAN_POINT('',(41.7925354771102,0.,45.));
#570=CARTESIAN_POINT('Origin',(43.2925354771102,0.,45.));
#571=CARTESIAN_POINT('Origin',(48.2925354771102,0.,50.));
#572=CARTESIAN_POINT('',(48.2925354771102,0.,-46.2));
#573=CARTESIAN_POINT('',(48.2925354771102,0.,50.));
#574=CARTESIAN_POINT('',(48.2925354771102,0.,-46.2));
#575=CARTESIAN_POINT('',(48.2925354771102,10.,-46.2));
#576=CARTESIAN_POINT('',(48.2925354771102,0.,-46.2));
#577=CARTESIAN_POINT('',(48.2925354771102,10.,50.));
#578=CARTESIAN_POINT('',(48.2925354771102,10.,-46.2));
#579=CARTESIAN_POINT('',(48.2925354771102,0.,50.));
#580=CARTESIAN_POINT('Origin',(-62.7074645228898,0.,50.));
#581=CARTESIAN_POINT('',(-62.7074645228898,0.,50.));
#582=CARTESIAN_POINT('',(48.2925354771102,0.,50.));
#583=CARTESIAN_POINT('',(-62.7074645228898,10.,50.));
#584=CARTESIAN_POINT('',(48.2925354771102,10.,50.));
#585=CARTESIAN_POINT('',(-62.7074645228898,0.,50.));
#586=CARTESIAN_POINT('Origin',(-62.7074645228898,0.,-46.2));
#587=CARTESIAN_POINT('',(-62.7074645228898,0.,-46.2));
#588=CARTESIAN_POINT('',(-62.7074645228898,0.,50.));
#589=CARTESIAN_POINT('',(-62.7074645228898,10.,-46.2));
#590=CARTESIAN_POINT('',(-62.7074645228898,10.,50.));
#591=CARTESIAN_POINT('',(-62.7074645228898,0.,-46.2));
#592=CARTESIAN_POINT('Origin',(48.2925354771102,0.,-46.2));
#593=CARTESIAN_POINT('',(-62.7074645228898,0.,-46.2));
#594=CARTESIAN_POINT('',(-62.7074645228898,10.,-46.2));
#595=CARTESIAN_POINT('Origin',(-7.20746452288981,10.,1.9));
#596=CARTESIAN_POINT('Origin',(-7.20746452288981,0.,1.9));
#597=CARTESIAN_POINT('Origin',(32.270585568281,0.,8.29706082378923));
#598=CARTESIAN_POINT('',(32.270585568281,0.,-31.7029391762108));
#599=CARTESIAN_POINT('',(32.270585568281,0.,8.29706082378923));
#600=CARTESIAN_POINT('',(32.270585568281,0.,-31.7029391762108));
#601=CARTESIAN_POINT('',(32.270585568281,4.,-31.7029391762108));
#602=CARTESIAN_POINT('',(32.270585568281,0.,-31.7029391762108));
#603=CARTESIAN_POINT('',(32.270585568281,4.,8.29706082378923));
#604=CARTESIAN_POINT('',(32.270585568281,4.,-31.7029391762108));
#605=CARTESIAN_POINT('',(32.270585568281,0.,8.29706082378923));
#606=CARTESIAN_POINT('Origin',(-47.729414431719,0.,8.29706082378923));
#607=CARTESIAN_POINT('',(-47.729414431719,0.,8.29706082378923));
#608=CARTESIAN_POINT('',(32.270585568281,0.,8.29706082378923));
#609=CARTESIAN_POINT('',(-47.729414431719,4.,8.29706082378923));
#610=CARTESIAN_POINT('',(32.270585568281,4.,8.29706082378923));
#611=CARTESIAN_POINT('',(-47.729414431719,0.,8.29706082378923));
#612=CARTESIAN_POINT('Origin',(-47.729414431719,0.,-31.7029391762108));
#613=CARTESIAN_POINT('',(-47.729414431719,0.,-31.7029391762108));
#614=CARTESIAN_POINT('',(-47.729414431719,0.,8.29706082378923));
#615=CARTESIAN_POINT('',(-47.729414431719,4.,-31.7029391762108));
#616=CARTESIAN_POINT('',(-47.729414431719,4.,8.29706082378923));
#617=CARTESIAN_POINT('',(-47.729414431719,0.,-31.7029391762108));
#618=CARTESIAN_POINT('Origin',(32.270585568281,0.,-31.7029391762108));
#619=CARTESIAN_POINT('',(-47.729414431719,0.,-31.7029391762108));
#620=CARTESIAN_POINT('',(-47.729414431719,4.,-31.7029391762108));
#621=CARTESIAN_POINT('Origin',(-7.72941443171897,4.,-11.7029391762108));
#622=CARTESIAN_POINT('Origin',(-7.72941443171897,0.,-11.7029391762108));
#623=UNCERTAINTY_MEASURE_WITH_UNIT(LENGTH_MEASURE(0.01),#627,
'DISTANCE_ACCURACY_VALUE',
'Maximum model space distance between geometric entities at asserted c
onnectivities');
#624=UNCERTAINTY_MEASURE_WITH_UNIT(LENGTH_MEASURE(0.01),#627,
'DISTANCE_ACCURACY_VALUE',
'Maximum model space distance between geometric entities at asserted c
onnectivities');
#625=(
GEOMETRIC_REPRESENTATION_CONTEXT(3)
GLOBAL_UNCERTAINTY_ASSIGNED_CONTEXT((#623))
GLOBAL_UNIT_ASSIGNED_CONTEXT((#627,#629,#630))
REPRESENTATION_CONTEXT('','3D')
);
#626=(
GEOMETRIC_REPRESENTATION_CONTEXT(3)
GLOBAL_UNCERTAINTY_ASSIGNED_CONTEXT((#624))
GLOBAL_UNIT_ASSIGNED_CONTEXT((#627,#629,#630))
REPRESENTATION_CONTEXT('','3D')
);
#627=(
LENGTH_UNIT()
NAMED_UNIT(*)
SI_UNIT(.MILLI.,.METRE.)
);
#628=(
LENGTH_UNIT()
NAMED_UNIT(*)
SI_UNIT($,.METRE.)
);
#629=(
NAMED_UNIT(*)
PLANE_ANGLE_UNIT()
SI_UNIT($,.RADIAN.)
);
#630=(
NAMED_UNIT(*)
SI_UNIT($,.STERADIAN.)
SOLID_ANGLE_UNIT()
);
#631=SHAPE_DEFINITION_REPRESENTATION(#632,#633);
#632=PRODUCT_DEFINITION_SHAPE('',$,#635);
#633=SHAPE_REPRESENTATION('',(#395),#625);
#634=PRODUCT_DEFINITION_CONTEXT('part definition',#639,'design');
#635=PRODUCT_DEFINITION('2026-02-05-20-27-14-774','Back-display',#636,#634);
#636=PRODUCT_DEFINITION_FORMATION('',$,#641);
#637=PRODUCT_RELATED_PRODUCT_CATEGORY('Back-display','Back-display',(#641));
#638=APPLICATION_PROTOCOL_DEFINITION('international standard',
'automotive_design',2009,#639);
#639=APPLICATION_CONTEXT(
'Core Data for Automotive Mechanical Design Process');
#640=PRODUCT_CONTEXT('part definition',#639,'mechanical');
#641=PRODUCT('2026-02-05-20-27-14-774','Back-display',$,(#640));
#642=PRESENTATION_STYLE_ASSIGNMENT((#643));
#643=SURFACE_STYLE_USAGE(.BOTH.,#644);
#644=SURFACE_SIDE_STYLE('',(#645));
#645=SURFACE_STYLE_FILL_AREA(#646);
#646=FILL_AREA_STYLE('Steel - Satin',(#647));
#647=FILL_AREA_STYLE_COLOUR('Steel - Satin',#648);
#648=COLOUR_RGB('Steel - Satin',0.627450980392157,0.627450980392157,0.627450980392157);
ENDSEC;
END-ISO-10303-21;
