ISO-10303-21;
HEADER;
/* Generated by software containing ST-Developer
 * from STEP Tools, Inc. (www.steptools.com) 
 */

FILE_DESCRIPTION(
/* description */ (''),
/* implementation_level */ '2;1');

FILE_NAME(
/* name */ 'Front-Display-o.step',
/* time_stamp */ '2026-02-18T15:49:41+01:00',
/* author */ (''),
/* organization */ (''),
/* preprocessor_version */ 'ST-DEVELOPER v20.1',
/* originating_system */ 'Autodesk Translation Framework v14.24.0.0',
/* authorisation */ '');

FILE_SCHEMA (('AUTOMOTIVE_DESIGN { 1 0 10303 214 3 1 1 }'));
ENDSEC;

DATA;
#10=MECHANICAL_DESIGN_GEOMETRIC_PRESENTATION_REPRESENTATION('',(#13),#757);
#11=SHAPE_REPRESENTATION_RELATIONSHIP('SRR','None',#764,#12);
#12=ADVANCED_BREP_SHAPE_REPRESENTATION('',(#14),#756);
#13=STYLED_ITEM('',(#773),#14);
#14=MANIFOLD_SOLID_BREP('Body1',#453);
#15=FACE_BOUND('',#67,.T.);
#16=FACE_BOUND('',#68,.T.);
#17=FACE_BOUND('',#69,.T.);
#18=FACE_BOUND('',#70,.T.);
#19=FACE_BOUND('',#71,.T.);
#20=FACE_BOUND('',#82,.T.);
#21=FACE_BOUND('',#93,.T.);
#22=FACE_BOUND('',#94,.T.);
#23=FACE_BOUND('',#95,.T.);
#24=FACE_BOUND('',#96,.T.);
#25=FACE_BOUND('',#97,.T.);
#26=PLANE('',#470);
#27=PLANE('',#471);
#28=PLANE('',#481);
#29=PLANE('',#484);
#30=PLANE('',#487);
#31=PLANE('',#488);
#32=PLANE('',#489);
#33=PLANE('',#490);
#34=PLANE('',#491);
#35=PLANE('',#492);
#36=PLANE('',#493);
#37=PLANE('',#498);
#38=PLANE('',#499);
#39=PLANE('',#504);
#40=PLANE('',#505);
#41=FACE_OUTER_BOUND('',#64,.T.);
#42=FACE_OUTER_BOUND('',#65,.T.);
#43=FACE_OUTER_BOUND('',#66,.T.);
#44=FACE_OUTER_BOUND('',#72,.T.);
#45=FACE_OUTER_BOUND('',#73,.T.);
#46=FACE_OUTER_BOUND('',#74,.T.);
#47=FACE_OUTER_BOUND('',#75,.T.);
#48=FACE_OUTER_BOUND('',#76,.T.);
#49=FACE_OUTER_BOUND('',#77,.T.);
#50=FACE_OUTER_BOUND('',#78,.T.);
#51=FACE_OUTER_BOUND('',#79,.T.);
#52=FACE_OUTER_BOUND('',#80,.T.);
#53=FACE_OUTER_BOUND('',#81,.T.);
#54=FACE_OUTER_BOUND('',#83,.T.);
#55=FACE_OUTER_BOUND('',#84,.T.);
#56=FACE_OUTER_BOUND('',#85,.T.);
#57=FACE_OUTER_BOUND('',#86,.T.);
#58=FACE_OUTER_BOUND('',#87,.T.);
#59=FACE_OUTER_BOUND('',#88,.T.);
#60=FACE_OUTER_BOUND('',#89,.T.);
#61=FACE_OUTER_BOUND('',#90,.T.);
#62=FACE_OUTER_BOUND('',#91,.T.);
#63=FACE_OUTER_BOUND('',#92,.T.);
#64=EDGE_LOOP('',(#302,#303,#304,#305));
#65=EDGE_LOOP('',(#306,#307,#308,#309));
#66=EDGE_LOOP('',(#310,#311,#312,#313,#314,#315,#316,#317));
#67=EDGE_LOOP('',(#318,#319,#320,#321));
#68=EDGE_LOOP('',(#322));
#69=EDGE_LOOP('',(#323));
#70=EDGE_LOOP('',(#324));
#71=EDGE_LOOP('',(#325));
#72=EDGE_LOOP('',(#326,#327,#328,#329));
#73=EDGE_LOOP('',(#330,#331,#332,#333));
#74=EDGE_LOOP('',(#334,#335,#336,#337));
#75=EDGE_LOOP('',(#338,#339,#340,#341));
#76=EDGE_LOOP('',(#342,#343,#344,#345));
#77=EDGE_LOOP('',(#346,#347,#348,#349));
#78=EDGE_LOOP('',(#350,#351,#352,#353));
#79=EDGE_LOOP('',(#354,#355,#356,#357));
#80=EDGE_LOOP('',(#358,#359,#360,#361));
#81=EDGE_LOOP('',(#362,#363,#364,#365));
#82=EDGE_LOOP('',(#366,#367,#368,#369));
#83=EDGE_LOOP('',(#370,#371,#372,#373));
#84=EDGE_LOOP('',(#374,#375,#376,#377));
#85=EDGE_LOOP('',(#378,#379,#380,#381));
#86=EDGE_LOOP('',(#382,#383,#384,#385));
#87=EDGE_LOOP('',(#386,#387,#388,#389));
#88=EDGE_LOOP('',(#390,#391,#392,#393));
#89=EDGE_LOOP('',(#394,#395,#396,#397));
#90=EDGE_LOOP('',(#398,#399,#400,#401));
#91=EDGE_LOOP('',(#402,#403,#404,#405));
#92=EDGE_LOOP('',(#406,#407,#408,#409,#410,#411,#412,#413));
#93=EDGE_LOOP('',(#414));
#94=EDGE_LOOP('',(#415));
#95=EDGE_LOOP('',(#416,#417,#418,#419));
#96=EDGE_LOOP('',(#420));
#97=EDGE_LOOP('',(#421));
#98=LINE('',#636,#142);
#99=LINE('',#639,#143);
#100=LINE('',#642,#144);
#101=LINE('',#644,#145);
#102=LINE('',#645,#146);
#103=LINE('',#648,#147);
#104=LINE('',#652,#148);
#105=LINE('',#656,#149);
#106=LINE('',#660,#150);
#107=LINE('',#662,#151);
#108=LINE('',#664,#152);
#109=LINE('',#665,#153);
#110=LINE('',#677,#154);
#111=LINE('',#680,#155);
#112=LINE('',#681,#156);
#113=LINE('',#685,#157);
#114=LINE('',#688,#158);
#115=LINE('',#689,#159);
#116=LINE('',#693,#160);
#117=LINE('',#696,#161);
#118=LINE('',#698,#162);
#119=LINE('',#699,#163);
#120=LINE('',#702,#164);
#121=LINE('',#703,#165);
#122=LINE('',#706,#166);
#123=LINE('',#707,#167);
#124=LINE('',#709,#168);
#125=LINE('',#713,#169);
#126=LINE('',#715,#170);
#127=LINE('',#717,#171);
#128=LINE('',#718,#172);
#129=LINE('',#721,#173);
#130=LINE('',#723,#174);
#131=LINE('',#724,#175);
#132=LINE('',#727,#176);
#133=LINE('',#728,#177);
#134=LINE('',#732,#178);
#135=LINE('',#736,#179);
#136=LINE('',#739,#180);
#137=LINE('',#740,#181);
#138=LINE('',#742,#182);
#139=LINE('',#746,#183);
#140=LINE('',#750,#184);
#141=LINE('',#752,#185);
#142=VECTOR('',#512,10.);
#143=VECTOR('',#515,10.);
#144=VECTOR('',#518,10.);
#145=VECTOR('',#519,10.);
#146=VECTOR('',#520,10.);
#147=VECTOR('',#523,10.);
#148=VECTOR('',#526,10.);
#149=VECTOR('',#529,10.);
#150=VECTOR('',#532,10.);
#151=VECTOR('',#533,10.);
#152=VECTOR('',#534,10.);
#153=VECTOR('',#535,10.);
#154=VECTOR('',#548,10.);
#155=VECTOR('',#551,10.);
#156=VECTOR('',#552,10.);
#157=VECTOR('',#557,10.);
#158=VECTOR('',#560,10.);
#159=VECTOR('',#561,10.);
#160=VECTOR('',#566,10.);
#161=VECTOR('',#569,10.);
#162=VECTOR('',#570,10.);
#163=VECTOR('',#571,10.);
#164=VECTOR('',#574,10.);
#165=VECTOR('',#575,10.);
#166=VECTOR('',#578,10.);
#167=VECTOR('',#579,10.);
#168=VECTOR('',#582,10.);
#169=VECTOR('',#585,10.);
#170=VECTOR('',#586,10.);
#171=VECTOR('',#587,10.);
#172=VECTOR('',#588,10.);
#173=VECTOR('',#591,10.);
#174=VECTOR('',#592,10.);
#175=VECTOR('',#593,10.);
#176=VECTOR('',#596,10.);
#177=VECTOR('',#597,10.);
#178=VECTOR('',#602,1.74999999999997);
#179=VECTOR('',#607,1.74999999999997);
#180=VECTOR('',#610,10.);
#181=VECTOR('',#611,10.);
#182=VECTOR('',#614,10.);
#183=VECTOR('',#619,1.74999999999997);
#184=VECTOR('',#624,1.74999999999997);
#185=VECTOR('',#627,10.);
#186=CIRCLE('',#468,5.);
#187=CIRCLE('',#469,5.);
#188=CIRCLE('',#472,5.);
#189=CIRCLE('',#473,5.);
#190=CIRCLE('',#474,5.);
#191=CIRCLE('',#475,1.74999999999997);
#192=CIRCLE('',#476,1.74999999999997);
#193=CIRCLE('',#477,1.74999999999997);
#194=CIRCLE('',#478,1.74999999999997);
#195=CIRCLE('',#480,5.);
#196=CIRCLE('',#483,5.);
#197=CIRCLE('',#486,5.);
#198=CIRCLE('',#495,1.74999999999997);
#199=CIRCLE('',#497,1.74999999999997);
#200=CIRCLE('',#501,1.74999999999997);
#201=CIRCLE('',#503,1.74999999999997);
#202=VERTEX_POINT('',#632);
#203=VERTEX_POINT('',#633);
#204=VERTEX_POINT('',#635);
#205=VERTEX_POINT('',#637);
#206=VERTEX_POINT('',#641);
#207=VERTEX_POINT('',#643);
#208=VERTEX_POINT('',#647);
#209=VERTEX_POINT('',#649);
#210=VERTEX_POINT('',#651);
#211=VERTEX_POINT('',#653);
#212=VERTEX_POINT('',#655);
#213=VERTEX_POINT('',#658);
#214=VERTEX_POINT('',#659);
#215=VERTEX_POINT('',#661);
#216=VERTEX_POINT('',#663);
#217=VERTEX_POINT('',#666);
#218=VERTEX_POINT('',#668);
#219=VERTEX_POINT('',#670);
#220=VERTEX_POINT('',#672);
#221=VERTEX_POINT('',#675);
#222=VERTEX_POINT('',#679);
#223=VERTEX_POINT('',#683);
#224=VERTEX_POINT('',#687);
#225=VERTEX_POINT('',#691);
#226=VERTEX_POINT('',#695);
#227=VERTEX_POINT('',#697);
#228=VERTEX_POINT('',#701);
#229=VERTEX_POINT('',#705);
#230=VERTEX_POINT('',#711);
#231=VERTEX_POINT('',#712);
#232=VERTEX_POINT('',#714);
#233=VERTEX_POINT('',#716);
#234=VERTEX_POINT('',#720);
#235=VERTEX_POINT('',#722);
#236=VERTEX_POINT('',#726);
#237=VERTEX_POINT('',#730);
#238=VERTEX_POINT('',#734);
#239=VERTEX_POINT('',#738);
#240=VERTEX_POINT('',#744);
#241=VERTEX_POINT('',#748);
#242=EDGE_CURVE('',#202,#203,#186,.T.);
#243=EDGE_CURVE('',#203,#204,#98,.T.);
#244=EDGE_CURVE('',#204,#205,#187,.T.);
#245=EDGE_CURVE('',#205,#202,#99,.T.);
#246=EDGE_CURVE('',#206,#205,#100,.T.);
#247=EDGE_CURVE('',#207,#206,#101,.T.);
#248=EDGE_CURVE('',#202,#207,#102,.T.);
#249=EDGE_CURVE('',#204,#208,#103,.T.);
#250=EDGE_CURVE('',#209,#208,#188,.T.);
#251=EDGE_CURVE('',#209,#210,#104,.T.);
#252=EDGE_CURVE('',#211,#210,#189,.T.);
#253=EDGE_CURVE('',#211,#212,#105,.T.);
#254=EDGE_CURVE('',#206,#212,#190,.T.);
#255=EDGE_CURVE('',#213,#214,#106,.T.);
#256=EDGE_CURVE('',#214,#215,#107,.T.);
#257=EDGE_CURVE('',#215,#216,#108,.T.);
#258=EDGE_CURVE('',#216,#213,#109,.T.);
#259=EDGE_CURVE('',#217,#217,#191,.T.);
#260=EDGE_CURVE('',#218,#218,#192,.T.);
#261=EDGE_CURVE('',#219,#219,#193,.T.);
#262=EDGE_CURVE('',#220,#220,#194,.T.);
#263=EDGE_CURVE('',#221,#207,#195,.T.);
#264=EDGE_CURVE('',#212,#221,#110,.T.);
#265=EDGE_CURVE('',#222,#211,#111,.T.);
#266=EDGE_CURVE('',#221,#222,#112,.T.);
#267=EDGE_CURVE('',#223,#222,#196,.T.);
#268=EDGE_CURVE('',#210,#223,#113,.T.);
#269=EDGE_CURVE('',#224,#209,#114,.T.);
#270=EDGE_CURVE('',#223,#224,#115,.T.);
#271=EDGE_CURVE('',#225,#224,#197,.T.);
#272=EDGE_CURVE('',#208,#225,#116,.T.);
#273=EDGE_CURVE('',#213,#226,#117,.T.);
#274=EDGE_CURVE('',#226,#227,#118,.T.);
#275=EDGE_CURVE('',#214,#227,#119,.T.);
#276=EDGE_CURVE('',#216,#228,#120,.T.);
#277=EDGE_CURVE('',#228,#226,#121,.T.);
#278=EDGE_CURVE('',#215,#229,#122,.T.);
#279=EDGE_CURVE('',#229,#228,#123,.T.);
#280=EDGE_CURVE('',#227,#229,#124,.T.);
#281=EDGE_CURVE('',#230,#231,#125,.T.);
#282=EDGE_CURVE('',#232,#230,#126,.T.);
#283=EDGE_CURVE('',#233,#232,#127,.T.);
#284=EDGE_CURVE('',#231,#233,#128,.T.);
#285=EDGE_CURVE('',#230,#234,#129,.T.);
#286=EDGE_CURVE('',#235,#234,#130,.T.);
#287=EDGE_CURVE('',#232,#235,#131,.T.);
#288=EDGE_CURVE('',#231,#236,#132,.T.);
#289=EDGE_CURVE('',#234,#236,#133,.T.);
#290=EDGE_CURVE('',#237,#237,#198,.T.);
#291=EDGE_CURVE('',#237,#220,#134,.T.);
#292=EDGE_CURVE('',#238,#238,#199,.T.);
#293=EDGE_CURVE('',#238,#219,#135,.T.);
#294=EDGE_CURVE('',#233,#239,#136,.T.);
#295=EDGE_CURVE('',#236,#239,#137,.T.);
#296=EDGE_CURVE('',#239,#235,#138,.T.);
#297=EDGE_CURVE('',#240,#240,#200,.T.);
#298=EDGE_CURVE('',#240,#218,#139,.T.);
#299=EDGE_CURVE('',#241,#241,#201,.T.);
#300=EDGE_CURVE('',#241,#217,#140,.T.);
#301=EDGE_CURVE('',#225,#203,#141,.T.);
#302=ORIENTED_EDGE('',*,*,#242,.T.);
#303=ORIENTED_EDGE('',*,*,#243,.T.);
#304=ORIENTED_EDGE('',*,*,#244,.T.);
#305=ORIENTED_EDGE('',*,*,#245,.T.);
#306=ORIENTED_EDGE('',*,*,#245,.F.);
#307=ORIENTED_EDGE('',*,*,#246,.F.);
#308=ORIENTED_EDGE('',*,*,#247,.F.);
#309=ORIENTED_EDGE('',*,*,#248,.F.);
#310=ORIENTED_EDGE('',*,*,#244,.F.);
#311=ORIENTED_EDGE('',*,*,#249,.T.);
#312=ORIENTED_EDGE('',*,*,#250,.F.);
#313=ORIENTED_EDGE('',*,*,#251,.T.);
#314=ORIENTED_EDGE('',*,*,#252,.F.);
#315=ORIENTED_EDGE('',*,*,#253,.T.);
#316=ORIENTED_EDGE('',*,*,#254,.F.);
#317=ORIENTED_EDGE('',*,*,#246,.T.);
#318=ORIENTED_EDGE('',*,*,#255,.T.);
#319=ORIENTED_EDGE('',*,*,#256,.T.);
#320=ORIENTED_EDGE('',*,*,#257,.T.);
#321=ORIENTED_EDGE('',*,*,#258,.T.);
#322=ORIENTED_EDGE('',*,*,#259,.F.);
#323=ORIENTED_EDGE('',*,*,#260,.F.);
#324=ORIENTED_EDGE('',*,*,#261,.F.);
#325=ORIENTED_EDGE('',*,*,#262,.F.);
#326=ORIENTED_EDGE('',*,*,#263,.T.);
#327=ORIENTED_EDGE('',*,*,#247,.T.);
#328=ORIENTED_EDGE('',*,*,#254,.T.);
#329=ORIENTED_EDGE('',*,*,#264,.T.);
#330=ORIENTED_EDGE('',*,*,#264,.F.);
#331=ORIENTED_EDGE('',*,*,#253,.F.);
#332=ORIENTED_EDGE('',*,*,#265,.F.);
#333=ORIENTED_EDGE('',*,*,#266,.F.);
#334=ORIENTED_EDGE('',*,*,#267,.T.);
#335=ORIENTED_EDGE('',*,*,#265,.T.);
#336=ORIENTED_EDGE('',*,*,#252,.T.);
#337=ORIENTED_EDGE('',*,*,#268,.T.);
#338=ORIENTED_EDGE('',*,*,#268,.F.);
#339=ORIENTED_EDGE('',*,*,#251,.F.);
#340=ORIENTED_EDGE('',*,*,#269,.F.);
#341=ORIENTED_EDGE('',*,*,#270,.F.);
#342=ORIENTED_EDGE('',*,*,#271,.T.);
#343=ORIENTED_EDGE('',*,*,#269,.T.);
#344=ORIENTED_EDGE('',*,*,#250,.T.);
#345=ORIENTED_EDGE('',*,*,#272,.T.);
#346=ORIENTED_EDGE('',*,*,#255,.F.);
#347=ORIENTED_EDGE('',*,*,#273,.T.);
#348=ORIENTED_EDGE('',*,*,#274,.T.);
#349=ORIENTED_EDGE('',*,*,#275,.F.);
#350=ORIENTED_EDGE('',*,*,#258,.F.);
#351=ORIENTED_EDGE('',*,*,#276,.T.);
#352=ORIENTED_EDGE('',*,*,#277,.T.);
#353=ORIENTED_EDGE('',*,*,#273,.F.);
#354=ORIENTED_EDGE('',*,*,#257,.F.);
#355=ORIENTED_EDGE('',*,*,#278,.T.);
#356=ORIENTED_EDGE('',*,*,#279,.T.);
#357=ORIENTED_EDGE('',*,*,#276,.F.);
#358=ORIENTED_EDGE('',*,*,#256,.F.);
#359=ORIENTED_EDGE('',*,*,#275,.T.);
#360=ORIENTED_EDGE('',*,*,#280,.T.);
#361=ORIENTED_EDGE('',*,*,#278,.F.);
#362=ORIENTED_EDGE('',*,*,#280,.F.);
#363=ORIENTED_EDGE('',*,*,#274,.F.);
#364=ORIENTED_EDGE('',*,*,#277,.F.);
#365=ORIENTED_EDGE('',*,*,#279,.F.);
#366=ORIENTED_EDGE('',*,*,#281,.F.);
#367=ORIENTED_EDGE('',*,*,#282,.F.);
#368=ORIENTED_EDGE('',*,*,#283,.F.);
#369=ORIENTED_EDGE('',*,*,#284,.F.);
#370=ORIENTED_EDGE('',*,*,#282,.T.);
#371=ORIENTED_EDGE('',*,*,#285,.T.);
#372=ORIENTED_EDGE('',*,*,#286,.F.);
#373=ORIENTED_EDGE('',*,*,#287,.F.);
#374=ORIENTED_EDGE('',*,*,#281,.T.);
#375=ORIENTED_EDGE('',*,*,#288,.T.);
#376=ORIENTED_EDGE('',*,*,#289,.F.);
#377=ORIENTED_EDGE('',*,*,#285,.F.);
#378=ORIENTED_EDGE('',*,*,#290,.F.);
#379=ORIENTED_EDGE('',*,*,#291,.T.);
#380=ORIENTED_EDGE('',*,*,#262,.T.);
#381=ORIENTED_EDGE('',*,*,#291,.F.);
#382=ORIENTED_EDGE('',*,*,#292,.F.);
#383=ORIENTED_EDGE('',*,*,#293,.T.);
#384=ORIENTED_EDGE('',*,*,#261,.T.);
#385=ORIENTED_EDGE('',*,*,#293,.F.);
#386=ORIENTED_EDGE('',*,*,#284,.T.);
#387=ORIENTED_EDGE('',*,*,#294,.T.);
#388=ORIENTED_EDGE('',*,*,#295,.F.);
#389=ORIENTED_EDGE('',*,*,#288,.F.);
#390=ORIENTED_EDGE('',*,*,#283,.T.);
#391=ORIENTED_EDGE('',*,*,#287,.T.);
#392=ORIENTED_EDGE('',*,*,#296,.F.);
#393=ORIENTED_EDGE('',*,*,#294,.F.);
#394=ORIENTED_EDGE('',*,*,#297,.F.);
#395=ORIENTED_EDGE('',*,*,#298,.T.);
#396=ORIENTED_EDGE('',*,*,#260,.T.);
#397=ORIENTED_EDGE('',*,*,#298,.F.);
#398=ORIENTED_EDGE('',*,*,#299,.F.);
#399=ORIENTED_EDGE('',*,*,#300,.T.);
#400=ORIENTED_EDGE('',*,*,#259,.T.);
#401=ORIENTED_EDGE('',*,*,#300,.F.);
#402=ORIENTED_EDGE('',*,*,#243,.F.);
#403=ORIENTED_EDGE('',*,*,#301,.F.);
#404=ORIENTED_EDGE('',*,*,#272,.F.);
#405=ORIENTED_EDGE('',*,*,#249,.F.);
#406=ORIENTED_EDGE('',*,*,#242,.F.);
#407=ORIENTED_EDGE('',*,*,#248,.T.);
#408=ORIENTED_EDGE('',*,*,#263,.F.);
#409=ORIENTED_EDGE('',*,*,#266,.T.);
#410=ORIENTED_EDGE('',*,*,#267,.F.);
#411=ORIENTED_EDGE('',*,*,#270,.T.);
#412=ORIENTED_EDGE('',*,*,#271,.F.);
#413=ORIENTED_EDGE('',*,*,#301,.T.);
#414=ORIENTED_EDGE('',*,*,#299,.T.);
#415=ORIENTED_EDGE('',*,*,#297,.T.);
#416=ORIENTED_EDGE('',*,*,#296,.T.);
#417=ORIENTED_EDGE('',*,*,#286,.T.);
#418=ORIENTED_EDGE('',*,*,#289,.T.);
#419=ORIENTED_EDGE('',*,*,#295,.T.);
#420=ORIENTED_EDGE('',*,*,#292,.T.);
#421=ORIENTED_EDGE('',*,*,#290,.T.);
#422=CYLINDRICAL_SURFACE('',#467,5.);
#423=CYLINDRICAL_SURFACE('',#479,5.);
#424=CYLINDRICAL_SURFACE('',#482,5.);
#425=CYLINDRICAL_SURFACE('',#485,5.);
#426=CYLINDRICAL_SURFACE('',#494,1.74999999999997);
#427=CYLINDRICAL_SURFACE('',#496,1.74999999999997);
#428=CYLINDRICAL_SURFACE('',#500,1.74999999999997);
#429=CYLINDRICAL_SURFACE('',#502,1.74999999999997);
#430=ADVANCED_FACE('',(#41),#422,.T.);
#431=ADVANCED_FACE('',(#42),#26,.T.);
#432=ADVANCED_FACE('',(#43,#15,#16,#17,#18,#19),#27,.F.);
#433=ADVANCED_FACE('',(#44),#423,.T.);
#434=ADVANCED_FACE('',(#45),#28,.T.);
#435=ADVANCED_FACE('',(#46),#424,.T.);
#436=ADVANCED_FACE('',(#47),#29,.T.);
#437=ADVANCED_FACE('',(#48),#425,.T.);
#438=ADVANCED_FACE('',(#49),#30,.F.);
#439=ADVANCED_FACE('',(#50),#31,.F.);
#440=ADVANCED_FACE('',(#51),#32,.F.);
#441=ADVANCED_FACE('',(#52),#33,.F.);
#442=ADVANCED_FACE('',(#53,#20),#34,.F.);
#443=ADVANCED_FACE('',(#54),#35,.T.);
#444=ADVANCED_FACE('',(#55),#36,.T.);
#445=ADVANCED_FACE('',(#56),#426,.F.);
#446=ADVANCED_FACE('',(#57),#427,.F.);
#447=ADVANCED_FACE('',(#58),#37,.T.);
#448=ADVANCED_FACE('',(#59),#38,.T.);
#449=ADVANCED_FACE('',(#60),#428,.F.);
#450=ADVANCED_FACE('',(#61),#429,.F.);
#451=ADVANCED_FACE('',(#62),#39,.T.);
#452=ADVANCED_FACE('',(#63,#21,#22,#23,#24,#25),#40,.T.);
#453=CLOSED_SHELL('',(#430,#431,#432,#433,#434,#435,#436,#437,#438,#439,
#440,#441,#442,#443,#444,#445,#446,#447,#448,#449,#450,#451,#452));
#454=DERIVED_UNIT_ELEMENT(#456,1.);
#455=DERIVED_UNIT_ELEMENT(#759,-3.);
#456=(
MASS_UNIT()
NAMED_UNIT(*)
SI_UNIT(.KILO.,.GRAM.)
);
#457=DERIVED_UNIT((#454,#455));
#458=MEASURE_REPRESENTATION_ITEM('density measure',
POSITIVE_RATIO_MEASURE(7850.),#457);
#459=PROPERTY_DEFINITION_REPRESENTATION(#464,#461);
#460=PROPERTY_DEFINITION_REPRESENTATION(#465,#462);
#461=REPRESENTATION('material name',(#463),#756);
#462=REPRESENTATION('density',(#458),#756);
#463=DESCRIPTIVE_REPRESENTATION_ITEM('Steel','Steel');
#464=PROPERTY_DEFINITION('material property','material name',#766);
#465=PROPERTY_DEFINITION('material property','density of part',#766);
#466=AXIS2_PLACEMENT_3D('',#630,#506,#507);
#467=AXIS2_PLACEMENT_3D('',#631,#508,#509);
#468=AXIS2_PLACEMENT_3D('',#634,#510,#511);
#469=AXIS2_PLACEMENT_3D('',#638,#513,#514);
#470=AXIS2_PLACEMENT_3D('',#640,#516,#517);
#471=AXIS2_PLACEMENT_3D('',#646,#521,#522);
#472=AXIS2_PLACEMENT_3D('',#650,#524,#525);
#473=AXIS2_PLACEMENT_3D('',#654,#527,#528);
#474=AXIS2_PLACEMENT_3D('',#657,#530,#531);
#475=AXIS2_PLACEMENT_3D('',#667,#536,#537);
#476=AXIS2_PLACEMENT_3D('',#669,#538,#539);
#477=AXIS2_PLACEMENT_3D('',#671,#540,#541);
#478=AXIS2_PLACEMENT_3D('',#673,#542,#543);
#479=AXIS2_PLACEMENT_3D('',#674,#544,#545);
#480=AXIS2_PLACEMENT_3D('',#676,#546,#547);
#481=AXIS2_PLACEMENT_3D('',#678,#549,#550);
#482=AXIS2_PLACEMENT_3D('',#682,#553,#554);
#483=AXIS2_PLACEMENT_3D('',#684,#555,#556);
#484=AXIS2_PLACEMENT_3D('',#686,#558,#559);
#485=AXIS2_PLACEMENT_3D('',#690,#562,#563);
#486=AXIS2_PLACEMENT_3D('',#692,#564,#565);
#487=AXIS2_PLACEMENT_3D('',#694,#567,#568);
#488=AXIS2_PLACEMENT_3D('',#700,#572,#573);
#489=AXIS2_PLACEMENT_3D('',#704,#576,#577);
#490=AXIS2_PLACEMENT_3D('',#708,#580,#581);
#491=AXIS2_PLACEMENT_3D('',#710,#583,#584);
#492=AXIS2_PLACEMENT_3D('',#719,#589,#590);
#493=AXIS2_PLACEMENT_3D('',#725,#594,#595);
#494=AXIS2_PLACEMENT_3D('',#729,#598,#599);
#495=AXIS2_PLACEMENT_3D('',#731,#600,#601);
#496=AXIS2_PLACEMENT_3D('',#733,#603,#604);
#497=AXIS2_PLACEMENT_3D('',#735,#605,#606);
#498=AXIS2_PLACEMENT_3D('',#737,#608,#609);
#499=AXIS2_PLACEMENT_3D('',#741,#612,#613);
#500=AXIS2_PLACEMENT_3D('',#743,#615,#616);
#501=AXIS2_PLACEMENT_3D('',#745,#617,#618);
#502=AXIS2_PLACEMENT_3D('',#747,#620,#621);
#503=AXIS2_PLACEMENT_3D('',#749,#622,#623);
#504=AXIS2_PLACEMENT_3D('',#751,#625,#626);
#505=AXIS2_PLACEMENT_3D('',#753,#628,#629);
#506=DIRECTION('axis',(0.,0.,1.));
#507=DIRECTION('refdir',(1.,0.,0.));
#508=DIRECTION('center_axis',(-1.22464679914735E-16,-1.,0.));
#509=DIRECTION('ref_axis',(-0.707106781186547,7.85046229341887E-17,0.707106781186547));
#510=DIRECTION('center_axis',(1.22464679914735E-16,1.,0.));
#511=DIRECTION('ref_axis',(-0.707106781186547,7.85046229341887E-17,0.707106781186547));
#512=DIRECTION('',(1.22464679914735E-16,1.,0.));
#513=DIRECTION('center_axis',(-1.22464679914735E-16,-1.,0.));
#514=DIRECTION('ref_axis',(-0.707106781186547,7.85046229341887E-17,0.707106781186547));
#515=DIRECTION('',(-1.22464679914735E-16,-1.,0.));
#516=DIRECTION('center_axis',(-1.,1.22464679914735E-16,0.));
#517=DIRECTION('ref_axis',(0.,0.,-1.));
#518=DIRECTION('',(0.,0.,1.));
#519=DIRECTION('',(1.22464679914735E-16,1.,0.));
#520=DIRECTION('',(0.,0.,-1.));
#521=DIRECTION('center_axis',(-1.22464679914735E-16,-1.,0.));
#522=DIRECTION('ref_axis',(-1.,1.22464679914735E-16,0.));
#523=DIRECTION('',(1.,-1.22464679914735E-16,0.));
#524=DIRECTION('center_axis',(-1.22464679914735E-16,-1.,0.));
#525=DIRECTION('ref_axis',(0.707106781186547,-7.85046229341887E-17,0.707106781186547));
#526=DIRECTION('',(0.,0.,-1.));
#527=DIRECTION('center_axis',(-1.22464679914735E-16,-1.,0.));
#528=DIRECTION('ref_axis',(0.707106781186547,-7.85046229341887E-17,-0.707106781186547));
#529=DIRECTION('',(-1.,1.22464679914735E-16,0.));
#530=DIRECTION('center_axis',(-1.22464679914735E-16,-1.,0.));
#531=DIRECTION('ref_axis',(-0.707106781186547,7.85046229341887E-17,-0.707106781186547));
#532=DIRECTION('',(0.,0.,-1.));
#533=DIRECTION('',(1.,-1.22464679914735E-16,0.));
#534=DIRECTION('',(0.,0.,1.));
#535=DIRECTION('',(-1.,1.22464679914735E-16,0.));
#536=DIRECTION('center_axis',(1.22464679914735E-16,1.,0.));
#537=DIRECTION('ref_axis',(-1.,1.22464679914735E-16,0.));
#538=DIRECTION('center_axis',(1.22464679914735E-16,1.,0.));
#539=DIRECTION('ref_axis',(-1.,1.22464679914735E-16,0.));
#540=DIRECTION('center_axis',(1.22464679914735E-16,1.,0.));
#541=DIRECTION('ref_axis',(-1.,1.22464679914735E-16,0.));
#542=DIRECTION('center_axis',(1.22464679914735E-16,1.,0.));
#543=DIRECTION('ref_axis',(-1.,1.22464679914735E-16,0.));
#544=DIRECTION('center_axis',(-1.22464679914735E-16,-1.,0.));
#545=DIRECTION('ref_axis',(-0.707106781186547,7.85046229341887E-17,-0.707106781186547));
#546=DIRECTION('center_axis',(1.22464679914735E-16,1.,0.));
#547=DIRECTION('ref_axis',(-0.707106781186547,7.85046229341887E-17,-0.707106781186547));
#548=DIRECTION('',(-1.22464679914735E-16,-1.,0.));
#549=DIRECTION('center_axis',(0.,0.,-1.));
#550=DIRECTION('ref_axis',(1.,-1.22464679914735E-16,0.));
#551=DIRECTION('',(1.22464679914735E-16,1.,0.));
#552=DIRECTION('',(1.,-1.22464679914735E-16,0.));
#553=DIRECTION('center_axis',(-1.22464679914735E-16,-1.,0.));
#554=DIRECTION('ref_axis',(0.707106781186547,-7.85046229341887E-17,-0.707106781186547));
#555=DIRECTION('center_axis',(1.22464679914735E-16,1.,0.));
#556=DIRECTION('ref_axis',(0.707106781186547,-7.85046229341887E-17,-0.707106781186547));
#557=DIRECTION('',(-1.22464679914735E-16,-1.,0.));
#558=DIRECTION('center_axis',(1.,-1.22464679914735E-16,0.));
#559=DIRECTION('ref_axis',(0.,0.,1.));
#560=DIRECTION('',(1.22464679914735E-16,1.,0.));
#561=DIRECTION('',(0.,0.,1.));
#562=DIRECTION('center_axis',(-1.22464679914735E-16,-1.,0.));
#563=DIRECTION('ref_axis',(0.707106781186547,-7.85046229341887E-17,0.707106781186547));
#564=DIRECTION('center_axis',(1.22464679914735E-16,1.,0.));
#565=DIRECTION('ref_axis',(0.707106781186547,-7.85046229341887E-17,0.707106781186547));
#566=DIRECTION('',(-1.22464679914735E-16,-1.,0.));
#567=DIRECTION('center_axis',(-1.,1.22464679914735E-16,0.));
#568=DIRECTION('ref_axis',(0.,0.,-1.));
#569=DIRECTION('',(-1.22464679914735E-16,-1.,0.));
#570=DIRECTION('',(0.,0.,-1.));
#571=DIRECTION('',(-1.22464679914735E-16,-1.,0.));
#572=DIRECTION('center_axis',(0.,0.,1.));
#573=DIRECTION('ref_axis',(-1.,1.22464679914735E-16,0.));
#574=DIRECTION('',(-1.22464679914735E-16,-1.,0.));
#575=DIRECTION('',(-1.,1.22464679914735E-16,0.));
#576=DIRECTION('center_axis',(1.,-1.22464679914735E-16,0.));
#577=DIRECTION('ref_axis',(0.,0.,1.));
#578=DIRECTION('',(-1.22464679914735E-16,-1.,0.));
#579=DIRECTION('',(0.,0.,1.));
#580=DIRECTION('center_axis',(0.,0.,-1.));
#581=DIRECTION('ref_axis',(1.,-1.22464679914735E-16,0.));
#582=DIRECTION('',(1.,-1.22464679914735E-16,0.));
#583=DIRECTION('center_axis',(-1.22464679914735E-16,-1.,0.));
#584=DIRECTION('ref_axis',(0.,0.,1.));
#585=DIRECTION('',(1.,-1.22464679914735E-16,0.));
#586=DIRECTION('',(0.,0.,1.));
#587=DIRECTION('',(-1.,1.22464679914735E-16,0.));
#588=DIRECTION('',(0.,0.,-1.));
#589=DIRECTION('center_axis',(1.,-1.22464679914735E-16,0.));
#590=DIRECTION('ref_axis',(0.,0.,1.));
#591=DIRECTION('',(-1.22464679914735E-16,-1.,0.));
#592=DIRECTION('',(0.,0.,1.));
#593=DIRECTION('',(-1.22464679914735E-16,-1.,0.));
#594=DIRECTION('center_axis',(0.,0.,-1.));
#595=DIRECTION('ref_axis',(1.,-1.22464679914735E-16,0.));
#596=DIRECTION('',(-1.22464679914735E-16,-1.,0.));
#597=DIRECTION('',(1.,-1.22464679914735E-16,0.));
#598=DIRECTION('center_axis',(-1.22464679914735E-16,-1.,0.));
#599=DIRECTION('ref_axis',(-1.,1.22464679914735E-16,0.));
#600=DIRECTION('center_axis',(1.22464679914735E-16,1.,0.));
#601=DIRECTION('ref_axis',(-1.,1.22464679914735E-16,0.));
#602=DIRECTION('',(1.22464679914735E-16,1.,0.));
#603=DIRECTION('center_axis',(-1.22464679914735E-16,-1.,0.));
#604=DIRECTION('ref_axis',(-1.,1.22464679914735E-16,0.));
#605=DIRECTION('center_axis',(1.22464679914735E-16,1.,0.));
#606=DIRECTION('ref_axis',(-1.,1.22464679914735E-16,0.));
#607=DIRECTION('',(1.22464679914735E-16,1.,0.));
#608=DIRECTION('center_axis',(-1.,1.22464679914735E-16,0.));
#609=DIRECTION('ref_axis',(0.,0.,-1.));
#610=DIRECTION('',(-1.22464679914735E-16,-1.,0.));
#611=DIRECTION('',(0.,0.,-1.));
#612=DIRECTION('center_axis',(0.,0.,1.));
#613=DIRECTION('ref_axis',(-1.,1.22464679914735E-16,0.));
#614=DIRECTION('',(-1.,1.22464679914735E-16,0.));
#615=DIRECTION('center_axis',(-1.22464679914735E-16,-1.,0.));
#616=DIRECTION('ref_axis',(-1.,1.22464679914735E-16,0.));
#617=DIRECTION('center_axis',(1.22464679914735E-16,1.,0.));
#618=DIRECTION('ref_axis',(-1.,1.22464679914735E-16,0.));
#619=DIRECTION('',(1.22464679914735E-16,1.,0.));
#620=DIRECTION('center_axis',(-1.22464679914735E-16,-1.,0.));
#621=DIRECTION('ref_axis',(-1.,1.22464679914735E-16,0.));
#622=DIRECTION('center_axis',(1.22464679914735E-16,1.,0.));
#623=DIRECTION('ref_axis',(-1.,1.22464679914735E-16,0.));
#624=DIRECTION('',(1.22464679914735E-16,1.,0.));
#625=DIRECTION('center_axis',(0.,0.,1.));
#626=DIRECTION('ref_axis',(-1.,1.22464679914735E-16,0.));
#627=DIRECTION('',(-1.,1.22464679914735E-16,0.));
#628=DIRECTION('center_axis',(-1.22464679914735E-16,-1.,0.));
#629=DIRECTION('ref_axis',(-1.,1.22464679914735E-16,0.));
#630=CARTESIAN_POINT('',(0.,0.,0.));
#631=CARTESIAN_POINT('Origin',(-57.4594918291693,2.00000000000003,45.038580919983));
#632=CARTESIAN_POINT('',(-62.4594918291693,-3.99999999999997,45.038580919983));
#633=CARTESIAN_POINT('',(-57.4594918291693,-3.99999999999997,50.038580919983));
#634=CARTESIAN_POINT('Origin',(-57.4594918291693,-3.99999999999997,45.038580919983));
#635=CARTESIAN_POINT('',(-57.4594918291693,2.00000000000003,50.038580919983));
#636=CARTESIAN_POINT('',(-57.4594918291693,2.00000000000003,50.038580919983));
#637=CARTESIAN_POINT('',(-62.4594918291693,2.00000000000004,45.038580919983));
#638=CARTESIAN_POINT('Origin',(-57.4594918291693,2.00000000000003,45.038580919983));
#639=CARTESIAN_POINT('',(-62.4594918291693,2.00000000000003,45.038580919983));
#640=CARTESIAN_POINT('Origin',(-62.4594918291693,2.00000000000004,50.038580919983));
#641=CARTESIAN_POINT('',(-62.4594918291693,2.00000000000004,-41.161419080017));
#642=CARTESIAN_POINT('',(-62.4594918291693,2.00000000000004,-46.161419080017));
#643=CARTESIAN_POINT('',(-62.4594918291693,-3.99999999999997,-41.161419080017));
#644=CARTESIAN_POINT('',(-62.4594918291693,2.00000000000004,-41.161419080017));
#645=CARTESIAN_POINT('',(-62.4594918291693,-3.99999999999997,-46.161419080017));
#646=CARTESIAN_POINT('Origin',(-6.95949182916934,2.00000000000003,1.938580919983));
#647=CARTESIAN_POINT('',(43.5405081708306,2.00000000000002,50.038580919983));
#648=CARTESIAN_POINT('',(-62.4594918291693,2.00000000000004,50.038580919983));
#649=CARTESIAN_POINT('',(48.5405081708306,2.00000000000002,45.038580919983));
#650=CARTESIAN_POINT('Origin',(43.5405081708306,2.00000000000002,45.038580919983));
#651=CARTESIAN_POINT('',(48.5405081708306,2.00000000000002,-41.161419080017));
#652=CARTESIAN_POINT('',(48.5405081708306,2.00000000000002,50.038580919983));
#653=CARTESIAN_POINT('',(43.5405081708306,2.00000000000002,-46.161419080017));
#654=CARTESIAN_POINT('Origin',(43.5405081708306,2.00000000000002,-41.161419080017));
#655=CARTESIAN_POINT('',(-57.4594918291693,2.00000000000003,-46.161419080017));
#656=CARTESIAN_POINT('',(48.5405081708306,2.00000000000002,-46.161419080017));
#657=CARTESIAN_POINT('Origin',(-57.4594918291693,2.00000000000003,-41.161419080017));
#658=CARTESIAN_POINT('',(-51.5970394632828,2.00000000000003,37.8202689491631));
#659=CARTESIAN_POINT('',(-51.5970394632828,2.00000000000003,-41.342645743637));
#660=CARTESIAN_POINT('',(-51.5970394632828,2.00000000000003,19.879424934573));
#661=CARTESIAN_POINT('',(39.7651837664172,2.00000000000002,-41.342645743637));
#662=CARTESIAN_POINT('',(-29.2782656462261,2.00000000000003,-41.342645743637));
#663=CARTESIAN_POINT('',(39.7651837664172,2.00000000000002,37.8202689491631));
#664=CARTESIAN_POINT('',(39.7651837664171,2.00000000000002,-19.702032411827));
#665=CARTESIAN_POINT('',(16.4028459686239,2.00000000000003,37.8202689491631));
#666=CARTESIAN_POINT('',(-55.7094918291693,2.00000000000003,-41.161419080017));
#667=CARTESIAN_POINT('Origin',(-57.4594918291693,2.00000000000003,-41.161419080017));
#668=CARTESIAN_POINT('',(45.2905081708306,2.00000000000002,-41.161419080017));
#669=CARTESIAN_POINT('Origin',(43.5405081708306,2.00000000000002,-41.161419080017));
#670=CARTESIAN_POINT('',(45.2905081708306,2.00000000000002,45.038580919983));
#671=CARTESIAN_POINT('Origin',(43.5405081708306,2.00000000000002,45.038580919983));
#672=CARTESIAN_POINT('',(-55.7094918291693,2.00000000000003,45.038580919983));
#673=CARTESIAN_POINT('Origin',(-57.4594918291693,2.00000000000003,45.038580919983));
#674=CARTESIAN_POINT('Origin',(-57.4594918291693,2.00000000000003,-41.161419080017));
#675=CARTESIAN_POINT('',(-57.4594918291693,-3.99999999999997,-46.161419080017));
#676=CARTESIAN_POINT('Origin',(-57.4594918291693,-3.99999999999997,-41.161419080017));
#677=CARTESIAN_POINT('',(-57.4594918291693,2.00000000000003,-46.161419080017));
#678=CARTESIAN_POINT('Origin',(-62.4594918291693,2.00000000000004,-46.161419080017));
#679=CARTESIAN_POINT('',(43.5405081708306,-3.99999999999998,-46.161419080017));
#680=CARTESIAN_POINT('',(43.5405081708306,2.00000000000002,-46.161419080017));
#681=CARTESIAN_POINT('',(48.5405081708306,-3.99999999999998,-46.161419080017));
#682=CARTESIAN_POINT('Origin',(43.5405081708306,2.00000000000002,-41.161419080017));
#683=CARTESIAN_POINT('',(48.5405081708306,-3.99999999999998,-41.161419080017));
#684=CARTESIAN_POINT('Origin',(43.5405081708306,-3.99999999999998,-41.161419080017));
#685=CARTESIAN_POINT('',(48.5405081708306,2.00000000000002,-41.161419080017));
#686=CARTESIAN_POINT('Origin',(48.5405081708306,2.00000000000002,-46.161419080017));
#687=CARTESIAN_POINT('',(48.5405081708306,-3.99999999999998,45.038580919983));
#688=CARTESIAN_POINT('',(48.5405081708306,2.00000000000002,45.038580919983));
#689=CARTESIAN_POINT('',(48.5405081708306,-3.99999999999998,50.038580919983));
#690=CARTESIAN_POINT('Origin',(43.5405081708306,2.00000000000002,45.038580919983));
#691=CARTESIAN_POINT('',(43.5405081708306,-3.99999999999998,50.038580919983));
#692=CARTESIAN_POINT('Origin',(43.5405081708306,-3.99999999999998,45.038580919983));
#693=CARTESIAN_POINT('',(43.5405081708306,2.00000000000002,50.038580919983));
#694=CARTESIAN_POINT('Origin',(-51.5970394632828,2.00000000000003,37.8202689491631));
#695=CARTESIAN_POINT('',(-51.5970394632828,3.3584246494911E-14,37.8202689491631));
#696=CARTESIAN_POINT('',(-51.5970394632828,2.00000000000003,37.8202689491631));
#697=CARTESIAN_POINT('',(-51.5970394632828,3.3584246494911E-14,-41.342645743637));
#698=CARTESIAN_POINT('',(-51.5970394632828,3.3584246494911E-14,37.8202689491631));
#699=CARTESIAN_POINT('',(-51.5970394632828,2.00000000000003,-41.342645743637));
#700=CARTESIAN_POINT('Origin',(39.7651837664172,2.00000000000002,37.8202689491631));
#701=CARTESIAN_POINT('',(39.7651837664172,2.24820162486594E-14,37.8202689491631));
#702=CARTESIAN_POINT('',(39.7651837664172,2.00000000000002,37.8202689491631));
#703=CARTESIAN_POINT('',(39.7651837664172,2.24820162486594E-14,37.8202689491631));
#704=CARTESIAN_POINT('Origin',(39.7651837664172,2.00000000000002,-41.342645743637));
#705=CARTESIAN_POINT('',(39.7651837664172,2.24820162486594E-14,-41.342645743637));
#706=CARTESIAN_POINT('',(39.7651837664172,2.00000000000002,-41.342645743637));
#707=CARTESIAN_POINT('',(39.7651837664172,2.24820162486594E-14,-41.342645743637));
#708=CARTESIAN_POINT('Origin',(-51.5970394632828,2.00000000000003,-41.342645743637));
#709=CARTESIAN_POINT('',(-51.5970394632828,3.3584246494911E-14,-41.342645743637));
#710=CARTESIAN_POINT('Origin',(-5.91592784843272,2.80331313717852E-14,-1.761188397237));
#711=CARTESIAN_POINT('',(-48.3509255110781,3.33066907387547E-14,33.6304094510328));
#712=CARTESIAN_POINT('',(36.449074488922,2.3037127760972E-14,33.6304094510328));
#713=CARTESIAN_POINT('',(-27.1334266797554,3.08086889333481E-14,33.6304094510328));
#714=CARTESIAN_POINT('',(-48.3509255110781,3.33066907387547E-14,-29.6695905489672));
#715=CARTESIAN_POINT('',(-48.3509255110781,3.33066907387547E-14,-15.7153894731021));
#716=CARTESIAN_POINT('',(36.449074488922,2.3037127760972E-14,-29.6695905489672));
#717=CARTESIAN_POINT('',(15.2665733202446,2.55351295663786E-14,-29.6695905489672));
#718=CARTESIAN_POINT('',(36.449074488922,2.3037127760972E-14,15.9346105268979));
#719=CARTESIAN_POINT('Origin',(-48.3509255110781,2.00000000000003,-29.6695905489672));
#720=CARTESIAN_POINT('',(-48.3509255110781,-3.99999999999997,33.6304094510328));
#721=CARTESIAN_POINT('',(-48.3509255110781,2.00000000000003,33.6304094510328));
#722=CARTESIAN_POINT('',(-48.3509255110781,-3.99999999999997,-29.6695905489672));
#723=CARTESIAN_POINT('',(-48.3509255110781,-3.99999999999997,-29.6695905489672));
#724=CARTESIAN_POINT('',(-48.3509255110781,2.00000000000003,-29.6695905489672));
#725=CARTESIAN_POINT('Origin',(-48.3509255110781,2.00000000000003,33.6304094510328));
#726=CARTESIAN_POINT('',(36.449074488922,-3.99999999999998,33.6304094510328));
#727=CARTESIAN_POINT('',(36.449074488922,2.00000000000002,33.6304094510328));
#728=CARTESIAN_POINT('',(-48.3509255110781,-3.99999999999997,33.6304094510328));
#729=CARTESIAN_POINT('Origin',(-57.4594918291693,2.00000000000003,45.038580919983));
#730=CARTESIAN_POINT('',(-55.7094918291693,-3.99999999999997,45.038580919983));
#731=CARTESIAN_POINT('Origin',(-57.4594918291693,-3.99999999999997,45.038580919983));
#732=CARTESIAN_POINT('',(-55.7094918291693,2.00000000000003,45.038580919983));
#733=CARTESIAN_POINT('Origin',(43.5405081708306,2.00000000000002,45.038580919983));
#734=CARTESIAN_POINT('',(45.2905081708306,-3.99999999999998,45.038580919983));
#735=CARTESIAN_POINT('Origin',(43.5405081708306,-3.99999999999998,45.038580919983));
#736=CARTESIAN_POINT('',(45.2905081708306,2.00000000000002,45.038580919983));
#737=CARTESIAN_POINT('Origin',(36.449074488922,2.00000000000002,33.6304094510328));
#738=CARTESIAN_POINT('',(36.449074488922,-3.99999999999998,-29.6695905489672));
#739=CARTESIAN_POINT('',(36.449074488922,2.00000000000002,-29.6695905489672));
#740=CARTESIAN_POINT('',(36.449074488922,-3.99999999999998,33.6304094510328));
#741=CARTESIAN_POINT('Origin',(36.449074488922,2.00000000000002,-29.6695905489672));
#742=CARTESIAN_POINT('',(36.449074488922,-3.99999999999998,-29.6695905489672));
#743=CARTESIAN_POINT('Origin',(43.5405081708306,2.00000000000002,-41.161419080017));
#744=CARTESIAN_POINT('',(45.2905081708306,-3.99999999999998,-41.161419080017));
#745=CARTESIAN_POINT('Origin',(43.5405081708306,-3.99999999999998,-41.161419080017));
#746=CARTESIAN_POINT('',(45.2905081708306,2.00000000000002,-41.161419080017));
#747=CARTESIAN_POINT('Origin',(-57.4594918291693,2.00000000000003,-41.161419080017));
#748=CARTESIAN_POINT('',(-55.7094918291693,-3.99999999999997,-41.161419080017));
#749=CARTESIAN_POINT('Origin',(-57.4594918291693,-3.99999999999997,-41.161419080017));
#750=CARTESIAN_POINT('',(-55.7094918291693,2.00000000000003,-41.161419080017));
#751=CARTESIAN_POINT('Origin',(48.5405081708306,2.00000000000002,50.038580919983));
#752=CARTESIAN_POINT('',(-62.4594918291693,-3.99999999999997,50.038580919983));
#753=CARTESIAN_POINT('Origin',(-6.95949182916934,-3.99999999999997,1.938580919983));
#754=UNCERTAINTY_MEASURE_WITH_UNIT(LENGTH_MEASURE(0.01),#758,
'DISTANCE_ACCURACY_VALUE',
'Maximum model space distance between geometric entities at asserted c
onnectivities');
#755=UNCERTAINTY_MEASURE_WITH_UNIT(LENGTH_MEASURE(0.01),#758,
'DISTANCE_ACCURACY_VALUE',
'Maximum model space distance between geometric entities at asserted c
onnectivities');
#756=(
GEOMETRIC_REPRESENTATION_CONTEXT(3)
GLOBAL_UNCERTAINTY_ASSIGNED_CONTEXT((#754))
GLOBAL_UNIT_ASSIGNED_CONTEXT((#758,#760,#761))
REPRESENTATION_CONTEXT('','3D')
);
#757=(
GEOMETRIC_REPRESENTATION_CONTEXT(3)
GLOBAL_UNCERTAINTY_ASSIGNED_CONTEXT((#755))
GLOBAL_UNIT_ASSIGNED_CONTEXT((#758,#760,#761))
REPRESENTATION_CONTEXT('','3D')
);
#758=(
LENGTH_UNIT()
NAMED_UNIT(*)
SI_UNIT(.MILLI.,.METRE.)
);
#759=(
LENGTH_UNIT()
NAMED_UNIT(*)
SI_UNIT($,.METRE.)
);
#760=(
NAMED_UNIT(*)
PLANE_ANGLE_UNIT()
SI_UNIT($,.RADIAN.)
);
#761=(
NAMED_UNIT(*)
SI_UNIT($,.STERADIAN.)
SOLID_ANGLE_UNIT()
);
#762=SHAPE_DEFINITION_REPRESENTATION(#763,#764);
#763=PRODUCT_DEFINITION_SHAPE('',$,#766);
#764=SHAPE_REPRESENTATION('',(#466),#756);
#765=PRODUCT_DEFINITION_CONTEXT('part definition',#770,'design');
#766=PRODUCT_DEFINITION('2026-02-02-21-42-42-958','Front-Display',#767,
#765);
#767=PRODUCT_DEFINITION_FORMATION('',$,#772);
#768=PRODUCT_RELATED_PRODUCT_CATEGORY('Front-Display','Front-Display',(#772));
#769=APPLICATION_PROTOCOL_DEFINITION('international standard',
'automotive_design',2009,#770);
#770=APPLICATION_CONTEXT(
'Core Data for Automotive Mechanical Design Process');
#771=PRODUCT_CONTEXT('part definition',#770,'mechanical');
#772=PRODUCT('2026-02-02-21-42-42-958','Front-Display',$,(#771));
#773=PRESENTATION_STYLE_ASSIGNMENT((#774));
#774=SURFACE_STYLE_USAGE(.BOTH.,#775);
#775=SURFACE_SIDE_STYLE('',(#776));
#776=SURFACE_STYLE_FILL_AREA(#777);
#777=FILL_AREA_STYLE('Steel - Satin',(#778));
#778=FILL_AREA_STYLE_COLOUR('Steel - Satin',#779);
#779=COLOUR_RGB('Steel - Satin',0.627450980392157,0.627450980392157,0.627450980392157);
ENDSEC;
END-ISO-10303-21;
