ISO-10303-21;
HEADER;
/* Generated by software containing ST-Developer
 * from STEP Tools, Inc. (www.steptools.com) 
 */

FILE_DESCRIPTION(
/* description */ (''),
/* implementation_level */ '2;1');

FILE_NAME(
/* name */ 'Front-Display.step',
/* time_stamp */ '2026-02-05T20:38:43+01:00',
/* author */ (''),
/* organization */ (''),
/* preprocessor_version */ 'ST-DEVELOPER v20.1',
/* originating_system */ 'Autodesk Translation Framework v14.21.0.0',
/* authorisation */ '');

FILE_SCHEMA (('AUTOMOTIVE_DESIGN { 1 0 10303 214 3 1 1 }'));
ENDSEC;

DATA;
#10=MECHANICAL_DESIGN_GEOMETRIC_PRESENTATION_REPRESENTATION('',(#13),#617);
#11=SHAPE_REPRESENTATION_RELATIONSHIP('SRR','None',#624,#12);
#12=ADVANCED_BREP_SHAPE_REPRESENTATION('',(#14),#616);
#13=STYLED_ITEM('',(#633),#14);
#14=MANIFOLD_SOLID_BREP('Body1',#377);
#15=CIRCLE('',#399,1.74999999999997);
#16=CIRCLE('',#400,1.74999999999997);
#17=CIRCLE('',#402,1.74999999999997);
#18=CIRCLE('',#403,1.74999999999997);
#19=CIRCLE('',#407,1.74999999999997);
#20=CIRCLE('',#408,1.74999999999997);
#21=CIRCLE('',#410,1.74999999999997);
#22=CIRCLE('',#411,1.74999999999997);
#23=CYLINDRICAL_SURFACE('',#398,1.74999999999997);
#24=CYLINDRICAL_SURFACE('',#401,1.74999999999997);
#25=CYLINDRICAL_SURFACE('',#406,1.74999999999997);
#26=CYLINDRICAL_SURFACE('',#409,1.74999999999997);
#27=FACE_BOUND('',#62,.T.);
#28=FACE_BOUND('',#76,.T.);
#29=FACE_BOUND('',#77,.T.);
#30=FACE_BOUND('',#78,.T.);
#31=FACE_BOUND('',#79,.T.);
#32=FACE_BOUND('',#80,.T.);
#33=FACE_BOUND('',#82,.T.);
#34=FACE_BOUND('',#83,.T.);
#35=FACE_BOUND('',#84,.T.);
#36=FACE_BOUND('',#85,.T.);
#37=FACE_BOUND('',#86,.T.);
#38=FACE_OUTER_BOUND('',#57,.T.);
#39=FACE_OUTER_BOUND('',#58,.T.);
#40=FACE_OUTER_BOUND('',#59,.T.);
#41=FACE_OUTER_BOUND('',#60,.T.);
#42=FACE_OUTER_BOUND('',#61,.T.);
#43=FACE_OUTER_BOUND('',#63,.T.);
#44=FACE_OUTER_BOUND('',#64,.T.);
#45=FACE_OUTER_BOUND('',#65,.T.);
#46=FACE_OUTER_BOUND('',#66,.T.);
#47=FACE_OUTER_BOUND('',#67,.T.);
#48=FACE_OUTER_BOUND('',#68,.T.);
#49=FACE_OUTER_BOUND('',#69,.T.);
#50=FACE_OUTER_BOUND('',#70,.T.);
#51=FACE_OUTER_BOUND('',#71,.T.);
#52=FACE_OUTER_BOUND('',#72,.T.);
#53=FACE_OUTER_BOUND('',#73,.T.);
#54=FACE_OUTER_BOUND('',#74,.T.);
#55=FACE_OUTER_BOUND('',#75,.T.);
#56=FACE_OUTER_BOUND('',#81,.T.);
#57=EDGE_LOOP('',(#247,#248,#249,#250));
#58=EDGE_LOOP('',(#251,#252,#253,#254));
#59=EDGE_LOOP('',(#255,#256,#257,#258));
#60=EDGE_LOOP('',(#259,#260,#261,#262));
#61=EDGE_LOOP('',(#263,#264,#265,#266));
#62=EDGE_LOOP('',(#267,#268,#269,#270));
#63=EDGE_LOOP('',(#271,#272,#273,#274));
#64=EDGE_LOOP('',(#275,#276,#277,#278));
#65=EDGE_LOOP('',(#279,#280,#281,#282));
#66=EDGE_LOOP('',(#283,#284,#285,#286));
#67=EDGE_LOOP('',(#287,#288,#289,#290));
#68=EDGE_LOOP('',(#291,#292,#293,#294));
#69=EDGE_LOOP('',(#295,#296,#297,#298));
#70=EDGE_LOOP('',(#299,#300,#301,#302));
#71=EDGE_LOOP('',(#303,#304,#305,#306));
#72=EDGE_LOOP('',(#307,#308,#309,#310));
#73=EDGE_LOOP('',(#311,#312,#313,#314));
#74=EDGE_LOOP('',(#315,#316,#317,#318));
#75=EDGE_LOOP('',(#319,#320,#321,#322));
#76=EDGE_LOOP('',(#323));
#77=EDGE_LOOP('',(#324));
#78=EDGE_LOOP('',(#325,#326,#327,#328));
#79=EDGE_LOOP('',(#329));
#80=EDGE_LOOP('',(#330));
#81=EDGE_LOOP('',(#331,#332,#333,#334));
#82=EDGE_LOOP('',(#335,#336,#337,#338));
#83=EDGE_LOOP('',(#339));
#84=EDGE_LOOP('',(#340));
#85=EDGE_LOOP('',(#341));
#86=EDGE_LOOP('',(#342));
#87=LINE('',#518,#127);
#88=LINE('',#520,#128);
#89=LINE('',#522,#129);
#90=LINE('',#523,#130);
#91=LINE('',#526,#131);
#92=LINE('',#528,#132);
#93=LINE('',#529,#133);
#94=LINE('',#532,#134);
#95=LINE('',#534,#135);
#96=LINE('',#535,#136);
#97=LINE('',#537,#137);
#98=LINE('',#538,#138);
#99=LINE('',#542,#139);
#100=LINE('',#544,#140);
#101=LINE('',#546,#141);
#102=LINE('',#547,#142);
#103=LINE('',#550,#143);
#104=LINE('',#552,#144);
#105=LINE('',#553,#145);
#106=LINE('',#556,#146);
#107=LINE('',#557,#147);
#108=LINE('',#562,#148);
#109=LINE('',#568,#149);
#110=LINE('',#572,#150);
#111=LINE('',#573,#151);
#112=LINE('',#575,#152);
#113=LINE('',#580,#153);
#114=LINE('',#586,#154);
#115=LINE('',#591,#155);
#116=LINE('',#593,#156);
#117=LINE('',#595,#157);
#118=LINE('',#596,#158);
#119=LINE('',#599,#159);
#120=LINE('',#601,#160);
#121=LINE('',#602,#161);
#122=LINE('',#605,#162);
#123=LINE('',#607,#163);
#124=LINE('',#608,#164);
#125=LINE('',#610,#165);
#126=LINE('',#611,#166);
#127=VECTOR('',#422,10.);
#128=VECTOR('',#423,10.);
#129=VECTOR('',#424,10.);
#130=VECTOR('',#425,10.);
#131=VECTOR('',#428,10.);
#132=VECTOR('',#429,10.);
#133=VECTOR('',#430,10.);
#134=VECTOR('',#433,10.);
#135=VECTOR('',#434,10.);
#136=VECTOR('',#435,10.);
#137=VECTOR('',#438,10.);
#138=VECTOR('',#439,10.);
#139=VECTOR('',#442,10.);
#140=VECTOR('',#443,10.);
#141=VECTOR('',#444,10.);
#142=VECTOR('',#445,10.);
#143=VECTOR('',#448,10.);
#144=VECTOR('',#449,10.);
#145=VECTOR('',#450,10.);
#146=VECTOR('',#453,10.);
#147=VECTOR('',#454,10.);
#148=VECTOR('',#459,1.74999999999997);
#149=VECTOR('',#466,1.74999999999997);
#150=VECTOR('',#471,10.);
#151=VECTOR('',#472,10.);
#152=VECTOR('',#475,10.);
#153=VECTOR('',#480,1.74999999999997);
#154=VECTOR('',#487,1.74999999999997);
#155=VECTOR('',#492,10.);
#156=VECTOR('',#493,10.);
#157=VECTOR('',#494,10.);
#158=VECTOR('',#495,10.);
#159=VECTOR('',#498,10.);
#160=VECTOR('',#499,10.);
#161=VECTOR('',#500,10.);
#162=VECTOR('',#503,10.);
#163=VECTOR('',#504,10.);
#164=VECTOR('',#505,10.);
#165=VECTOR('',#508,10.);
#166=VECTOR('',#509,10.);
#167=VERTEX_POINT('',#516);
#168=VERTEX_POINT('',#517);
#169=VERTEX_POINT('',#519);
#170=VERTEX_POINT('',#521);
#171=VERTEX_POINT('',#525);
#172=VERTEX_POINT('',#527);
#173=VERTEX_POINT('',#531);
#174=VERTEX_POINT('',#533);
#175=VERTEX_POINT('',#540);
#176=VERTEX_POINT('',#541);
#177=VERTEX_POINT('',#543);
#178=VERTEX_POINT('',#545);
#179=VERTEX_POINT('',#549);
#180=VERTEX_POINT('',#551);
#181=VERTEX_POINT('',#555);
#182=VERTEX_POINT('',#559);
#183=VERTEX_POINT('',#561);
#184=VERTEX_POINT('',#565);
#185=VERTEX_POINT('',#567);
#186=VERTEX_POINT('',#571);
#187=VERTEX_POINT('',#577);
#188=VERTEX_POINT('',#579);
#189=VERTEX_POINT('',#583);
#190=VERTEX_POINT('',#585);
#191=VERTEX_POINT('',#589);
#192=VERTEX_POINT('',#590);
#193=VERTEX_POINT('',#592);
#194=VERTEX_POINT('',#594);
#195=VERTEX_POINT('',#598);
#196=VERTEX_POINT('',#600);
#197=VERTEX_POINT('',#604);
#198=VERTEX_POINT('',#606);
#199=EDGE_CURVE('',#167,#168,#87,.T.);
#200=EDGE_CURVE('',#167,#169,#88,.T.);
#201=EDGE_CURVE('',#169,#170,#89,.T.);
#202=EDGE_CURVE('',#168,#170,#90,.T.);
#203=EDGE_CURVE('',#171,#167,#91,.T.);
#204=EDGE_CURVE('',#171,#172,#92,.T.);
#205=EDGE_CURVE('',#172,#169,#93,.T.);
#206=EDGE_CURVE('',#173,#171,#94,.T.);
#207=EDGE_CURVE('',#173,#174,#95,.T.);
#208=EDGE_CURVE('',#174,#172,#96,.T.);
#209=EDGE_CURVE('',#168,#173,#97,.T.);
#210=EDGE_CURVE('',#170,#174,#98,.T.);
#211=EDGE_CURVE('',#175,#176,#99,.T.);
#212=EDGE_CURVE('',#177,#175,#100,.T.);
#213=EDGE_CURVE('',#178,#177,#101,.T.);
#214=EDGE_CURVE('',#176,#178,#102,.T.);
#215=EDGE_CURVE('',#175,#179,#103,.T.);
#216=EDGE_CURVE('',#180,#179,#104,.T.);
#217=EDGE_CURVE('',#177,#180,#105,.T.);
#218=EDGE_CURVE('',#176,#181,#106,.T.);
#219=EDGE_CURVE('',#179,#181,#107,.T.);
#220=EDGE_CURVE('',#182,#182,#15,.T.);
#221=EDGE_CURVE('',#182,#183,#108,.T.);
#222=EDGE_CURVE('',#183,#183,#16,.T.);
#223=EDGE_CURVE('',#184,#184,#17,.T.);
#224=EDGE_CURVE('',#184,#185,#109,.T.);
#225=EDGE_CURVE('',#185,#185,#18,.T.);
#226=EDGE_CURVE('',#178,#186,#110,.T.);
#227=EDGE_CURVE('',#181,#186,#111,.T.);
#228=EDGE_CURVE('',#186,#180,#112,.T.);
#229=EDGE_CURVE('',#187,#187,#19,.T.);
#230=EDGE_CURVE('',#187,#188,#113,.T.);
#231=EDGE_CURVE('',#188,#188,#20,.T.);
#232=EDGE_CURVE('',#189,#189,#21,.T.);
#233=EDGE_CURVE('',#189,#190,#114,.T.);
#234=EDGE_CURVE('',#190,#190,#22,.T.);
#235=EDGE_CURVE('',#191,#192,#115,.T.);
#236=EDGE_CURVE('',#191,#193,#116,.T.);
#237=EDGE_CURVE('',#194,#193,#117,.T.);
#238=EDGE_CURVE('',#192,#194,#118,.T.);
#239=EDGE_CURVE('',#192,#195,#119,.T.);
#240=EDGE_CURVE('',#196,#194,#120,.T.);
#241=EDGE_CURVE('',#195,#196,#121,.T.);
#242=EDGE_CURVE('',#195,#197,#122,.T.);
#243=EDGE_CURVE('',#198,#196,#123,.T.);
#244=EDGE_CURVE('',#197,#198,#124,.T.);
#245=EDGE_CURVE('',#197,#191,#125,.T.);
#246=EDGE_CURVE('',#193,#198,#126,.T.);
#247=ORIENTED_EDGE('',*,*,#199,.F.);
#248=ORIENTED_EDGE('',*,*,#200,.T.);
#249=ORIENTED_EDGE('',*,*,#201,.T.);
#250=ORIENTED_EDGE('',*,*,#202,.F.);
#251=ORIENTED_EDGE('',*,*,#203,.F.);
#252=ORIENTED_EDGE('',*,*,#204,.T.);
#253=ORIENTED_EDGE('',*,*,#205,.T.);
#254=ORIENTED_EDGE('',*,*,#200,.F.);
#255=ORIENTED_EDGE('',*,*,#206,.F.);
#256=ORIENTED_EDGE('',*,*,#207,.T.);
#257=ORIENTED_EDGE('',*,*,#208,.T.);
#258=ORIENTED_EDGE('',*,*,#204,.F.);
#259=ORIENTED_EDGE('',*,*,#209,.F.);
#260=ORIENTED_EDGE('',*,*,#202,.T.);
#261=ORIENTED_EDGE('',*,*,#210,.T.);
#262=ORIENTED_EDGE('',*,*,#207,.F.);
#263=ORIENTED_EDGE('',*,*,#210,.F.);
#264=ORIENTED_EDGE('',*,*,#201,.F.);
#265=ORIENTED_EDGE('',*,*,#205,.F.);
#266=ORIENTED_EDGE('',*,*,#208,.F.);
#267=ORIENTED_EDGE('',*,*,#211,.F.);
#268=ORIENTED_EDGE('',*,*,#212,.F.);
#269=ORIENTED_EDGE('',*,*,#213,.F.);
#270=ORIENTED_EDGE('',*,*,#214,.F.);
#271=ORIENTED_EDGE('',*,*,#212,.T.);
#272=ORIENTED_EDGE('',*,*,#215,.T.);
#273=ORIENTED_EDGE('',*,*,#216,.F.);
#274=ORIENTED_EDGE('',*,*,#217,.F.);
#275=ORIENTED_EDGE('',*,*,#211,.T.);
#276=ORIENTED_EDGE('',*,*,#218,.T.);
#277=ORIENTED_EDGE('',*,*,#219,.F.);
#278=ORIENTED_EDGE('',*,*,#215,.F.);
#279=ORIENTED_EDGE('',*,*,#220,.F.);
#280=ORIENTED_EDGE('',*,*,#221,.T.);
#281=ORIENTED_EDGE('',*,*,#222,.T.);
#282=ORIENTED_EDGE('',*,*,#221,.F.);
#283=ORIENTED_EDGE('',*,*,#223,.F.);
#284=ORIENTED_EDGE('',*,*,#224,.T.);
#285=ORIENTED_EDGE('',*,*,#225,.T.);
#286=ORIENTED_EDGE('',*,*,#224,.F.);
#287=ORIENTED_EDGE('',*,*,#214,.T.);
#288=ORIENTED_EDGE('',*,*,#226,.T.);
#289=ORIENTED_EDGE('',*,*,#227,.F.);
#290=ORIENTED_EDGE('',*,*,#218,.F.);
#291=ORIENTED_EDGE('',*,*,#213,.T.);
#292=ORIENTED_EDGE('',*,*,#217,.T.);
#293=ORIENTED_EDGE('',*,*,#228,.F.);
#294=ORIENTED_EDGE('',*,*,#226,.F.);
#295=ORIENTED_EDGE('',*,*,#229,.F.);
#296=ORIENTED_EDGE('',*,*,#230,.T.);
#297=ORIENTED_EDGE('',*,*,#231,.T.);
#298=ORIENTED_EDGE('',*,*,#230,.F.);
#299=ORIENTED_EDGE('',*,*,#232,.F.);
#300=ORIENTED_EDGE('',*,*,#233,.T.);
#301=ORIENTED_EDGE('',*,*,#234,.T.);
#302=ORIENTED_EDGE('',*,*,#233,.F.);
#303=ORIENTED_EDGE('',*,*,#235,.F.);
#304=ORIENTED_EDGE('',*,*,#236,.T.);
#305=ORIENTED_EDGE('',*,*,#237,.F.);
#306=ORIENTED_EDGE('',*,*,#238,.F.);
#307=ORIENTED_EDGE('',*,*,#239,.F.);
#308=ORIENTED_EDGE('',*,*,#238,.T.);
#309=ORIENTED_EDGE('',*,*,#240,.F.);
#310=ORIENTED_EDGE('',*,*,#241,.F.);
#311=ORIENTED_EDGE('',*,*,#242,.F.);
#312=ORIENTED_EDGE('',*,*,#241,.T.);
#313=ORIENTED_EDGE('',*,*,#243,.F.);
#314=ORIENTED_EDGE('',*,*,#244,.F.);
#315=ORIENTED_EDGE('',*,*,#245,.F.);
#316=ORIENTED_EDGE('',*,*,#244,.T.);
#317=ORIENTED_EDGE('',*,*,#246,.F.);
#318=ORIENTED_EDGE('',*,*,#236,.F.);
#319=ORIENTED_EDGE('',*,*,#246,.T.);
#320=ORIENTED_EDGE('',*,*,#243,.T.);
#321=ORIENTED_EDGE('',*,*,#240,.T.);
#322=ORIENTED_EDGE('',*,*,#237,.T.);
#323=ORIENTED_EDGE('',*,*,#232,.T.);
#324=ORIENTED_EDGE('',*,*,#229,.T.);
#325=ORIENTED_EDGE('',*,*,#228,.T.);
#326=ORIENTED_EDGE('',*,*,#216,.T.);
#327=ORIENTED_EDGE('',*,*,#219,.T.);
#328=ORIENTED_EDGE('',*,*,#227,.T.);
#329=ORIENTED_EDGE('',*,*,#223,.T.);
#330=ORIENTED_EDGE('',*,*,#220,.T.);
#331=ORIENTED_EDGE('',*,*,#245,.T.);
#332=ORIENTED_EDGE('',*,*,#235,.T.);
#333=ORIENTED_EDGE('',*,*,#239,.T.);
#334=ORIENTED_EDGE('',*,*,#242,.T.);
#335=ORIENTED_EDGE('',*,*,#199,.T.);
#336=ORIENTED_EDGE('',*,*,#209,.T.);
#337=ORIENTED_EDGE('',*,*,#206,.T.);
#338=ORIENTED_EDGE('',*,*,#203,.T.);
#339=ORIENTED_EDGE('',*,*,#234,.F.);
#340=ORIENTED_EDGE('',*,*,#231,.F.);
#341=ORIENTED_EDGE('',*,*,#225,.F.);
#342=ORIENTED_EDGE('',*,*,#222,.F.);
#343=PLANE('',#391);
#344=PLANE('',#392);
#345=PLANE('',#393);
#346=PLANE('',#394);
#347=PLANE('',#395);
#348=PLANE('',#396);
#349=PLANE('',#397);
#350=PLANE('',#404);
#351=PLANE('',#405);
#352=PLANE('',#412);
#353=PLANE('',#413);
#354=PLANE('',#414);
#355=PLANE('',#415);
#356=PLANE('',#416);
#357=PLANE('',#417);
#358=ADVANCED_FACE('',(#38),#343,.F.);
#359=ADVANCED_FACE('',(#39),#344,.F.);
#360=ADVANCED_FACE('',(#40),#345,.F.);
#361=ADVANCED_FACE('',(#41),#346,.F.);
#362=ADVANCED_FACE('',(#42,#27),#347,.F.);
#363=ADVANCED_FACE('',(#43),#348,.T.);
#364=ADVANCED_FACE('',(#44),#349,.T.);
#365=ADVANCED_FACE('',(#45),#23,.F.);
#366=ADVANCED_FACE('',(#46),#24,.F.);
#367=ADVANCED_FACE('',(#47),#350,.T.);
#368=ADVANCED_FACE('',(#48),#351,.T.);
#369=ADVANCED_FACE('',(#49),#25,.F.);
#370=ADVANCED_FACE('',(#50),#26,.F.);
#371=ADVANCED_FACE('',(#51),#352,.T.);
#372=ADVANCED_FACE('',(#52),#353,.T.);
#373=ADVANCED_FACE('',(#53),#354,.T.);
#374=ADVANCED_FACE('',(#54),#355,.T.);
#375=ADVANCED_FACE('',(#55,#28,#29,#30,#31,#32),#356,.T.);
#376=ADVANCED_FACE('',(#56,#33,#34,#35,#36,#37),#357,.F.);
#377=CLOSED_SHELL('',(#358,#359,#360,#361,#362,#363,#364,#365,#366,#367,
#368,#369,#370,#371,#372,#373,#374,#375,#376));
#378=DERIVED_UNIT_ELEMENT(#380,1.);
#379=DERIVED_UNIT_ELEMENT(#619,-3.);
#380=(
MASS_UNIT()
NAMED_UNIT(*)
SI_UNIT(.KILO.,.GRAM.)
);
#381=DERIVED_UNIT((#378,#379));
#382=MEASURE_REPRESENTATION_ITEM('density measure',
POSITIVE_RATIO_MEASURE(7850.),#381);
#383=PROPERTY_DEFINITION_REPRESENTATION(#388,#385);
#384=PROPERTY_DEFINITION_REPRESENTATION(#389,#386);
#385=REPRESENTATION('material name',(#387),#616);
#386=REPRESENTATION('density',(#382),#616);
#387=DESCRIPTIVE_REPRESENTATION_ITEM('Steel','Steel');
#388=PROPERTY_DEFINITION('material property','material name',#626);
#389=PROPERTY_DEFINITION('material property','density of part',#626);
#390=AXIS2_PLACEMENT_3D('',#514,#418,#419);
#391=AXIS2_PLACEMENT_3D('',#515,#420,#421);
#392=AXIS2_PLACEMENT_3D('',#524,#426,#427);
#393=AXIS2_PLACEMENT_3D('',#530,#431,#432);
#394=AXIS2_PLACEMENT_3D('',#536,#436,#437);
#395=AXIS2_PLACEMENT_3D('',#539,#440,#441);
#396=AXIS2_PLACEMENT_3D('',#548,#446,#447);
#397=AXIS2_PLACEMENT_3D('',#554,#451,#452);
#398=AXIS2_PLACEMENT_3D('',#558,#455,#456);
#399=AXIS2_PLACEMENT_3D('',#560,#457,#458);
#400=AXIS2_PLACEMENT_3D('',#563,#460,#461);
#401=AXIS2_PLACEMENT_3D('',#564,#462,#463);
#402=AXIS2_PLACEMENT_3D('',#566,#464,#465);
#403=AXIS2_PLACEMENT_3D('',#569,#467,#468);
#404=AXIS2_PLACEMENT_3D('',#570,#469,#470);
#405=AXIS2_PLACEMENT_3D('',#574,#473,#474);
#406=AXIS2_PLACEMENT_3D('',#576,#476,#477);
#407=AXIS2_PLACEMENT_3D('',#578,#478,#479);
#408=AXIS2_PLACEMENT_3D('',#581,#481,#482);
#409=AXIS2_PLACEMENT_3D('',#582,#483,#484);
#410=AXIS2_PLACEMENT_3D('',#584,#485,#486);
#411=AXIS2_PLACEMENT_3D('',#587,#488,#489);
#412=AXIS2_PLACEMENT_3D('',#588,#490,#491);
#413=AXIS2_PLACEMENT_3D('',#597,#496,#497);
#414=AXIS2_PLACEMENT_3D('',#603,#501,#502);
#415=AXIS2_PLACEMENT_3D('',#609,#506,#507);
#416=AXIS2_PLACEMENT_3D('',#612,#510,#511);
#417=AXIS2_PLACEMENT_3D('',#613,#512,#513);
#418=DIRECTION('axis',(0.,0.,1.));
#419=DIRECTION('refdir',(1.,0.,0.));
#420=DIRECTION('center_axis',(1.,0.,0.));
#421=DIRECTION('ref_axis',(0.,0.,-1.));
#422=DIRECTION('',(0.,0.,-1.));
#423=DIRECTION('',(0.,1.,0.));
#424=DIRECTION('',(0.,0.,-1.));
#425=DIRECTION('',(0.,1.,0.));
#426=DIRECTION('center_axis',(0.,0.,1.));
#427=DIRECTION('ref_axis',(1.,0.,0.));
#428=DIRECTION('',(1.,0.,0.));
#429=DIRECTION('',(0.,1.,0.));
#430=DIRECTION('',(1.,0.,0.));
#431=DIRECTION('center_axis',(-1.,0.,0.));
#432=DIRECTION('ref_axis',(0.,0.,1.));
#433=DIRECTION('',(0.,0.,1.));
#434=DIRECTION('',(0.,1.,0.));
#435=DIRECTION('',(0.,0.,1.));
#436=DIRECTION('center_axis',(0.,0.,-1.));
#437=DIRECTION('ref_axis',(-1.,0.,0.));
#438=DIRECTION('',(-1.,0.,0.));
#439=DIRECTION('',(-1.,0.,0.));
#440=DIRECTION('center_axis',(0.,1.,0.));
#441=DIRECTION('ref_axis',(0.,0.,1.));
#442=DIRECTION('',(-1.,0.,0.));
#443=DIRECTION('',(0.,0.,1.));
#444=DIRECTION('',(1.,0.,0.));
#445=DIRECTION('',(0.,0.,-1.));
#446=DIRECTION('center_axis',(-1.,0.,0.));
#447=DIRECTION('ref_axis',(0.,0.,1.));
#448=DIRECTION('',(0.,1.,0.));
#449=DIRECTION('',(0.,0.,1.));
#450=DIRECTION('',(0.,1.,0.));
#451=DIRECTION('center_axis',(0.,0.,-1.));
#452=DIRECTION('ref_axis',(-1.,0.,0.));
#453=DIRECTION('',(0.,1.,0.));
#454=DIRECTION('',(-1.,0.,0.));
#455=DIRECTION('center_axis',(0.,1.,0.));
#456=DIRECTION('ref_axis',(1.,0.,0.));
#457=DIRECTION('center_axis',(0.,-1.,0.));
#458=DIRECTION('ref_axis',(1.,0.,0.));
#459=DIRECTION('',(0.,-1.,0.));
#460=DIRECTION('center_axis',(0.,-1.,0.));
#461=DIRECTION('ref_axis',(1.,0.,0.));
#462=DIRECTION('center_axis',(0.,1.,0.));
#463=DIRECTION('ref_axis',(1.,0.,0.));
#464=DIRECTION('center_axis',(0.,-1.,0.));
#465=DIRECTION('ref_axis',(1.,0.,0.));
#466=DIRECTION('',(0.,-1.,0.));
#467=DIRECTION('center_axis',(0.,-1.,0.));
#468=DIRECTION('ref_axis',(1.,0.,0.));
#469=DIRECTION('center_axis',(1.,0.,0.));
#470=DIRECTION('ref_axis',(0.,0.,-1.));
#471=DIRECTION('',(0.,1.,0.));
#472=DIRECTION('',(0.,0.,-1.));
#473=DIRECTION('center_axis',(0.,0.,1.));
#474=DIRECTION('ref_axis',(1.,0.,0.));
#475=DIRECTION('',(1.,0.,0.));
#476=DIRECTION('center_axis',(0.,1.,0.));
#477=DIRECTION('ref_axis',(1.,0.,0.));
#478=DIRECTION('center_axis',(0.,-1.,0.));
#479=DIRECTION('ref_axis',(1.,0.,0.));
#480=DIRECTION('',(0.,-1.,0.));
#481=DIRECTION('center_axis',(0.,-1.,0.));
#482=DIRECTION('ref_axis',(1.,0.,0.));
#483=DIRECTION('center_axis',(0.,1.,0.));
#484=DIRECTION('ref_axis',(1.,0.,0.));
#485=DIRECTION('center_axis',(0.,-1.,0.));
#486=DIRECTION('ref_axis',(1.,0.,0.));
#487=DIRECTION('',(0.,-1.,0.));
#488=DIRECTION('center_axis',(0.,-1.,0.));
#489=DIRECTION('ref_axis',(1.,0.,0.));
#490=DIRECTION('center_axis',(1.,0.,0.));
#491=DIRECTION('ref_axis',(0.,0.,-1.));
#492=DIRECTION('',(0.,0.,1.));
#493=DIRECTION('',(0.,1.,0.));
#494=DIRECTION('',(0.,0.,-1.));
#495=DIRECTION('',(0.,1.,0.));
#496=DIRECTION('center_axis',(0.,0.,1.));
#497=DIRECTION('ref_axis',(1.,0.,0.));
#498=DIRECTION('',(-1.,0.,0.));
#499=DIRECTION('',(1.,0.,0.));
#500=DIRECTION('',(0.,1.,0.));
#501=DIRECTION('center_axis',(-1.,0.,0.));
#502=DIRECTION('ref_axis',(0.,0.,1.));
#503=DIRECTION('',(0.,0.,-1.));
#504=DIRECTION('',(0.,0.,1.));
#505=DIRECTION('',(0.,1.,0.));
#506=DIRECTION('center_axis',(0.,0.,-1.));
#507=DIRECTION('ref_axis',(-1.,0.,0.));
#508=DIRECTION('',(1.,0.,0.));
#509=DIRECTION('',(-1.,0.,0.));
#510=DIRECTION('center_axis',(0.,1.,0.));
#511=DIRECTION('ref_axis',(1.,0.,0.));
#512=DIRECTION('center_axis',(0.,1.,0.));
#513=DIRECTION('ref_axis',(1.,0.,0.));
#514=CARTESIAN_POINT('',(0.,0.,0.));
#515=CARTESIAN_POINT('Origin',(898.058827632,0.,-298.29510444755));
#516=CARTESIAN_POINT('',(898.058827632,0.,-298.29510444755));
#517=CARTESIAN_POINT('',(898.058827632,0.,-377.45801914035));
#518=CARTESIAN_POINT('',(898.058827632,0.,-316.23594846214));
#519=CARTESIAN_POINT('',(898.058827632,2.,-298.29510444755));
#520=CARTESIAN_POINT('',(898.058827632,0.,-298.29510444755));
#521=CARTESIAN_POINT('',(898.058827632,2.,-377.45801914035));
#522=CARTESIAN_POINT('',(898.058827632,2.,-298.29510444755));
#523=CARTESIAN_POINT('',(898.058827632,0.,-377.45801914035));
#524=CARTESIAN_POINT('Origin',(806.6966044023,0.,-298.29510444755));
#525=CARTESIAN_POINT('',(806.6966044023,0.,-298.29510444755));
#526=CARTESIAN_POINT('',(830.058942200094,0.,-298.29510444755));
#527=CARTESIAN_POINT('',(806.6966044023,2.,-298.29510444755));
#528=CARTESIAN_POINT('',(806.6966044023,0.,-298.29510444755));
#529=CARTESIAN_POINT('',(806.6966044023,2.,-298.29510444755));
#530=CARTESIAN_POINT('Origin',(806.6966044023,0.,-377.45801914035));
#531=CARTESIAN_POINT('',(806.6966044023,0.,-377.45801914035));
#532=CARTESIAN_POINT('',(806.6966044023,0.,-355.81740580854));
#533=CARTESIAN_POINT('',(806.6966044023,2.,-377.45801914035));
#534=CARTESIAN_POINT('',(806.6966044023,0.,-377.45801914035));
#535=CARTESIAN_POINT('',(806.6966044023,2.,-377.45801914035));
#536=CARTESIAN_POINT('Origin',(898.058827632,0.,-377.45801914035));
#537=CARTESIAN_POINT('',(875.740053814944,0.,-377.45801914035));
#538=CARTESIAN_POINT('',(898.058827632,2.,-377.45801914035));
#539=CARTESIAN_POINT('Origin',(852.37771601715,2.,-337.87656179395));
#540=CARTESIAN_POINT('',(894.812713679796,2.,-302.48496394568));
#541=CARTESIAN_POINT('',(810.012713679796,2.,-302.48496394568));
#542=CARTESIAN_POINT('',(873.595214848473,2.,-302.48496394568));
#543=CARTESIAN_POINT('',(894.812713679796,2.,-365.78496394568));
#544=CARTESIAN_POINT('',(894.812713679796,2.,-351.830762869815));
#545=CARTESIAN_POINT('',(810.012713679796,2.,-365.78496394568));
#546=CARTESIAN_POINT('',(831.195214848473,2.,-365.78496394568));
#547=CARTESIAN_POINT('',(810.012713679796,2.,-320.180762869815));
#548=CARTESIAN_POINT('Origin',(894.812713679796,0.,-365.78496394568));
#549=CARTESIAN_POINT('',(894.812713679796,6.,-302.48496394568));
#550=CARTESIAN_POINT('',(894.812713679796,0.,-302.48496394568));
#551=CARTESIAN_POINT('',(894.812713679796,6.,-365.78496394568));
#552=CARTESIAN_POINT('',(894.812713679796,6.,-365.78496394568));
#553=CARTESIAN_POINT('',(894.812713679796,0.,-365.78496394568));
#554=CARTESIAN_POINT('Origin',(894.812713679796,0.,-302.48496394568));
#555=CARTESIAN_POINT('',(810.012713679796,6.,-302.48496394568));
#556=CARTESIAN_POINT('',(810.012713679796,0.,-302.48496394568));
#557=CARTESIAN_POINT('',(894.812713679796,6.,-302.48496394568));
#558=CARTESIAN_POINT('Origin',(903.921279997887,0.,-291.07679247673));
#559=CARTESIAN_POINT('',(902.171279997887,6.,-291.07679247673));
#560=CARTESIAN_POINT('Origin',(903.921279997887,6.,-291.07679247673));
#561=CARTESIAN_POINT('',(902.171279997887,0.,-291.07679247673));
#562=CARTESIAN_POINT('',(902.171279997887,0.,-291.07679247673));
#563=CARTESIAN_POINT('Origin',(903.921279997887,0.,-291.07679247673));
#564=CARTESIAN_POINT('Origin',(802.921279997887,0.,-291.07679247673));
#565=CARTESIAN_POINT('',(801.171279997887,6.,-291.07679247673));
#566=CARTESIAN_POINT('Origin',(802.921279997887,6.,-291.07679247673));
#567=CARTESIAN_POINT('',(801.171279997887,0.,-291.07679247673));
#568=CARTESIAN_POINT('',(801.171279997887,0.,-291.07679247673));
#569=CARTESIAN_POINT('Origin',(802.921279997887,0.,-291.07679247673));
#570=CARTESIAN_POINT('Origin',(810.012713679796,0.,-302.48496394568));
#571=CARTESIAN_POINT('',(810.012713679796,6.,-365.78496394568));
#572=CARTESIAN_POINT('',(810.012713679796,0.,-365.78496394568));
#573=CARTESIAN_POINT('',(810.012713679796,6.,-302.48496394568));
#574=CARTESIAN_POINT('Origin',(810.012713679796,0.,-365.78496394568));
#575=CARTESIAN_POINT('',(810.012713679796,6.,-365.78496394568));
#576=CARTESIAN_POINT('Origin',(802.921279997887,0.,-377.27679247673));
#577=CARTESIAN_POINT('',(801.171279997887,6.,-377.27679247673));
#578=CARTESIAN_POINT('Origin',(802.921279997887,6.,-377.27679247673));
#579=CARTESIAN_POINT('',(801.171279997887,0.,-377.27679247673));
#580=CARTESIAN_POINT('',(801.171279997887,0.,-377.27679247673));
#581=CARTESIAN_POINT('Origin',(802.921279997887,0.,-377.27679247673));
#582=CARTESIAN_POINT('Origin',(903.921279997887,0.,-377.27679247673));
#583=CARTESIAN_POINT('',(902.171279997887,6.,-377.27679247673));
#584=CARTESIAN_POINT('Origin',(903.921279997887,6.,-377.27679247673));
#585=CARTESIAN_POINT('',(902.171279997887,0.,-377.27679247673));
#586=CARTESIAN_POINT('',(902.171279997887,0.,-377.27679247673));
#587=CARTESIAN_POINT('Origin',(903.921279997887,0.,-377.27679247673));
#588=CARTESIAN_POINT('Origin',(908.921279997887,0.,-286.07679247673));
#589=CARTESIAN_POINT('',(908.921279997887,0.,-382.27679247673));
#590=CARTESIAN_POINT('',(908.921279997887,0.,-286.07679247673));
#591=CARTESIAN_POINT('',(908.921279997887,0.,-382.27679247673));
#592=CARTESIAN_POINT('',(908.921279997887,6.,-382.27679247673));
#593=CARTESIAN_POINT('',(908.921279997887,0.,-382.27679247673));
#594=CARTESIAN_POINT('',(908.921279997887,6.,-286.07679247673));
#595=CARTESIAN_POINT('',(908.921279997887,6.,-382.27679247673));
#596=CARTESIAN_POINT('',(908.921279997887,0.,-286.07679247673));
#597=CARTESIAN_POINT('Origin',(797.921279997887,0.,-286.07679247673));
#598=CARTESIAN_POINT('',(797.921279997887,0.,-286.07679247673));
#599=CARTESIAN_POINT('',(908.921279997887,0.,-286.07679247673));
#600=CARTESIAN_POINT('',(797.921279997887,6.,-286.07679247673));
#601=CARTESIAN_POINT('',(908.921279997887,6.,-286.07679247673));
#602=CARTESIAN_POINT('',(797.921279997887,0.,-286.07679247673));
#603=CARTESIAN_POINT('Origin',(797.921279997887,0.,-382.27679247673));
#604=CARTESIAN_POINT('',(797.921279997887,0.,-382.27679247673));
#605=CARTESIAN_POINT('',(797.921279997887,0.,-286.07679247673));
#606=CARTESIAN_POINT('',(797.921279997887,6.,-382.27679247673));
#607=CARTESIAN_POINT('',(797.921279997887,6.,-286.07679247673));
#608=CARTESIAN_POINT('',(797.921279997887,0.,-382.27679247673));
#609=CARTESIAN_POINT('Origin',(908.921279997887,0.,-382.27679247673));
#610=CARTESIAN_POINT('',(797.921279997887,0.,-382.27679247673));
#611=CARTESIAN_POINT('',(797.921279997887,6.,-382.27679247673));
#612=CARTESIAN_POINT('Origin',(853.421279997887,6.,-334.17679247673));
#613=CARTESIAN_POINT('Origin',(853.421279997887,0.,-334.17679247673));
#614=UNCERTAINTY_MEASURE_WITH_UNIT(LENGTH_MEASURE(0.01),#618,
'DISTANCE_ACCURACY_VALUE',
'Maximum model space distance between geometric entities at asserted c
onnectivities');
#615=UNCERTAINTY_MEASURE_WITH_UNIT(LENGTH_MEASURE(0.01),#618,
'DISTANCE_ACCURACY_VALUE',
'Maximum model space distance between geometric entities at asserted c
onnectivities');
#616=(
GEOMETRIC_REPRESENTATION_CONTEXT(3)
GLOBAL_UNCERTAINTY_ASSIGNED_CONTEXT((#614))
GLOBAL_UNIT_ASSIGNED_CONTEXT((#618,#620,#621))
REPRESENTATION_CONTEXT('','3D')
);
#617=(
GEOMETRIC_REPRESENTATION_CONTEXT(3)
GLOBAL_UNCERTAINTY_ASSIGNED_CONTEXT((#615))
GLOBAL_UNIT_ASSIGNED_CONTEXT((#618,#620,#621))
REPRESENTATION_CONTEXT('','3D')
);
#618=(
LENGTH_UNIT()
NAMED_UNIT(*)
SI_UNIT(.MILLI.,.METRE.)
);
#619=(
LENGTH_UNIT()
NAMED_UNIT(*)
SI_UNIT($,.METRE.)
);
#620=(
NAMED_UNIT(*)
PLANE_ANGLE_UNIT()
SI_UNIT($,.RADIAN.)
);
#621=(
NAMED_UNIT(*)
SI_UNIT($,.STERADIAN.)
SOLID_ANGLE_UNIT()
);
#622=SHAPE_DEFINITION_REPRESENTATION(#623,#624);
#623=PRODUCT_DEFINITION_SHAPE('',$,#626);
#624=SHAPE_REPRESENTATION('',(#390),#616);
#625=PRODUCT_DEFINITION_CONTEXT('part definition',#630,'design');
#626=PRODUCT_DEFINITION('2026-02-02-21-42-42-958','Front-Display',#627,
#625);
#627=PRODUCT_DEFINITION_FORMATION('',$,#632);
#628=PRODUCT_RELATED_PRODUCT_CATEGORY('Front-Display','Front-Display',(#632));
#629=APPLICATION_PROTOCOL_DEFINITION('international standard',
'automotive_design',2009,#630);
#630=APPLICATION_CONTEXT(
'Core Data for Automotive Mechanical Design Process');
#631=PRODUCT_CONTEXT('part definition',#630,'mechanical');
#632=PRODUCT('2026-02-02-21-42-42-958','Front-Display',$,(#631));
#633=PRESENTATION_STYLE_ASSIGNMENT((#634));
#634=SURFACE_STYLE_USAGE(.BOTH.,#635);
#635=SURFACE_SIDE_STYLE('',(#636));
#636=SURFACE_STYLE_FILL_AREA(#637);
#637=FILL_AREA_STYLE('Steel - Satin',(#638));
#638=FILL_AREA_STYLE_COLOUR('Steel - Satin',#639);
#639=COLOUR_RGB('Steel - Satin',0.627450980392157,0.627450980392157,0.627450980392157);
ENDSEC;
END-ISO-10303-21;
